<?xml version="1.0" encoding="UTF-8" standalone="no"?>
<!DOCTYPE svg PUBLIC "-//W3C//DTD SVG 1.1//EN"
 "http://www.w3.org/Graphics/SVG/1.1/DTD/svg11.dtd">
<!-- Generated by graphviz version 2.49.0 (20210829.0051)
 -->
<!-- Title: snakemake_dag Pages: 1 -->
<svg width="872pt" height="791pt"
 viewBox="0.00 0.00 872.00 791.00" xmlns="http://www.w3.org/2000/svg" xmlns:xlink="http://www.w3.org/1999/xlink">
<g id="graph0" class="graph" transform="scale(1 1) rotate(0) translate(4 787)">
<title>snakemake_dag</title>
<polygon fill="white" stroke="transparent" points="-4,4 -4,-787 868,-787 868,4 -4,4"/>
<!-- 0 -->
<g id="node1" class="node">
<title>0</title>
<path fill="none" stroke="#56d882" stroke-width="2" d="M442,-36C442,-36 412,-36 412,-36 406,-36 400,-30 400,-24 400,-24 400,-12 400,-12 400,-6 406,0 412,0 412,0 442,0 442,0 448,0 454,-6 454,-12 454,-12 454,-24 454,-24 454,-30 448,-36 442,-36"/>
<text text-anchor="middle" x="427" y="-15.5" font-family="sans" font-size="10.00">all</text>
</g>
<!-- 1 -->
<g id="node2" class="node">
<title>1</title>
<path fill="none" stroke="#d8ac56" stroke-width="2" d="M231.5,-180C231.5,-180 182.5,-180 182.5,-180 176.5,-180 170.5,-174 170.5,-168 170.5,-168 170.5,-156 170.5,-156 170.5,-150 176.5,-144 182.5,-144 182.5,-144 231.5,-144 231.5,-144 237.5,-144 243.5,-150 243.5,-156 243.5,-156 243.5,-168 243.5,-168 243.5,-174 237.5,-180 231.5,-180"/>
<text text-anchor="middle" x="207" y="-159.5" font-family="sans" font-size="10.00">append_sfx</text>
</g>
<!-- 1&#45;&gt;0 -->
<g id="edge1" class="edge">
<title>1&#45;&gt;0</title>
<path fill="none" stroke="grey" stroke-width="2" d="M231.11,-143.77C256.96,-125.46 299.38,-95.92 337,-72 354.56,-60.84 374.46,-49.03 391.08,-39.4"/>
<polygon fill="grey" stroke="grey" stroke-width="2" points="393.02,-42.33 399.93,-34.3 389.52,-36.26 393.02,-42.33"/>
</g>
<!-- 51 -->
<g id="node52" class="node">
<title>51</title>
<path fill="none" stroke="#d85656" stroke-width="2" d="M453,-108C453,-108 401,-108 401,-108 395,-108 389,-102 389,-96 389,-96 389,-84 389,-84 389,-78 395,-72 401,-72 401,-72 453,-72 453,-72 459,-72 465,-78 465,-84 465,-84 465,-96 465,-96 465,-102 459,-108 453,-108"/>
<text text-anchor="middle" x="427" y="-87.5" font-family="sans" font-size="10.00">aggr_counts</text>
</g>
<!-- 1&#45;&gt;51 -->
<g id="edge69" class="edge">
<title>1&#45;&gt;51</title>
<path fill="none" stroke="grey" stroke-width="2" d="M243.76,-146.88C246.54,-145.88 249.31,-144.91 252,-144 294.54,-129.54 343.53,-114.87 378.84,-104.64"/>
<polygon fill="grey" stroke="grey" stroke-width="2" points="380.24,-107.88 388.87,-101.75 378.3,-101.16 380.24,-107.88"/>
</g>
<!-- 2 -->
<g id="node3" class="node">
<title>2</title>
<path fill="none" stroke="#56d8a9" stroke-width="2" d="M183.5,-252C183.5,-252 110.5,-252 110.5,-252 104.5,-252 98.5,-246 98.5,-240 98.5,-240 98.5,-228 98.5,-228 98.5,-222 104.5,-216 110.5,-216 110.5,-216 183.5,-216 183.5,-216 189.5,-216 195.5,-222 195.5,-228 195.5,-228 195.5,-240 195.5,-240 195.5,-246 189.5,-252 183.5,-252"/>
<text text-anchor="middle" x="147" y="-231.5" font-family="sans" font-size="10.00">umi_tools_count</text>
</g>
<!-- 2&#45;&gt;1 -->
<g id="edge8" class="edge">
<title>2&#45;&gt;1</title>
<path fill="none" stroke="grey" stroke-width="2" d="M161.83,-215.7C169.02,-207.3 177.8,-197.07 185.69,-187.86"/>
<polygon fill="grey" stroke="grey" stroke-width="2" points="188.49,-189.97 192.34,-180.1 183.17,-185.42 188.49,-189.97"/>
</g>
<!-- 3 -->
<g id="node4" class="node">
<title>3</title>
<path fill="none" stroke="#59d856" stroke-width="2" d="M183.5,-324C183.5,-324 112.5,-324 112.5,-324 106.5,-324 100.5,-318 100.5,-312 100.5,-312 100.5,-300 100.5,-300 100.5,-294 106.5,-288 112.5,-288 112.5,-288 183.5,-288 183.5,-288 189.5,-288 195.5,-294 195.5,-300 195.5,-300 195.5,-312 195.5,-312 195.5,-318 189.5,-324 183.5,-324"/>
<text text-anchor="middle" x="148" y="-303.5" font-family="sans" font-size="10.00">sambamba_sort</text>
</g>
<!-- 3&#45;&gt;2 -->
<g id="edge9" class="edge">
<title>3&#45;&gt;2</title>
<path fill="none" stroke="grey" stroke-width="2" d="M147.75,-287.7C147.64,-279.98 147.51,-270.71 147.39,-262.11"/>
<polygon fill="grey" stroke="grey" stroke-width="2" points="150.89,-262.05 147.24,-252.1 143.89,-262.15 150.89,-262.05"/>
</g>
<!-- 4 -->
<g id="node5" class="node">
<title>4</title>
<path fill="none" stroke="#56d8d8" stroke-width="2" d="M218.5,-396C218.5,-396 163.5,-396 163.5,-396 157.5,-396 151.5,-390 151.5,-384 151.5,-384 151.5,-372 151.5,-372 151.5,-366 157.5,-360 163.5,-360 163.5,-360 218.5,-360 218.5,-360 224.5,-360 230.5,-366 230.5,-372 230.5,-372 230.5,-384 230.5,-384 230.5,-390 224.5,-396 218.5,-396"/>
<text text-anchor="middle" x="191" y="-375.5" font-family="sans" font-size="10.00">featurecount</text>
</g>
<!-- 4&#45;&gt;3 -->
<g id="edge10" class="edge">
<title>4&#45;&gt;3</title>
<path fill="none" stroke="grey" stroke-width="2" d="M180.37,-359.7C175.37,-351.56 169.31,-341.69 163.79,-332.7"/>
<polygon fill="grey" stroke="grey" stroke-width="2" points="166.72,-330.79 158.51,-324.1 160.76,-334.46 166.72,-330.79"/>
</g>
<!-- 5 -->
<g id="node6" class="node">
<title>5</title>
<path fill="none" stroke="#56a9d8" stroke-width="2" d="M224,-540C224,-540 194,-540 194,-540 188,-540 182,-534 182,-528 182,-528 182,-516 182,-516 182,-510 188,-504 194,-504 194,-504 224,-504 224,-504 230,-504 236,-510 236,-516 236,-516 236,-528 236,-528 236,-534 230,-540 224,-540"/>
<text text-anchor="middle" x="209" y="-519.5" font-family="sans" font-size="10.00">STAR</text>
</g>
<!-- 5&#45;&gt;4 -->
<g id="edge11" class="edge">
<title>5&#45;&gt;4</title>
<path fill="none" stroke="grey" stroke-width="2" d="M206.83,-503.87C203.76,-479.67 198.13,-435.21 194.47,-406.39"/>
<polygon fill="grey" stroke="grey" stroke-width="2" points="197.91,-405.67 193.18,-396.19 190.96,-406.55 197.91,-405.67"/>
</g>
<!-- 10 -->
<g id="node11" class="node">
<title>10</title>
<path fill="none" stroke="#80d856" stroke-width="2" d="M460,-468C460,-468 404,-468 404,-468 398,-468 392,-462 392,-456 392,-456 392,-444 392,-444 392,-438 398,-432 404,-432 404,-432 460,-432 460,-432 466,-432 472,-438 472,-444 472,-444 472,-456 472,-456 472,-462 466,-468 460,-468"/>
<text text-anchor="middle" x="432" y="-447.5" font-family="sans" font-size="10.00">STAR_unload</text>
</g>
<!-- 5&#45;&gt;10 -->
<g id="edge17" class="edge">
<title>5&#45;&gt;10</title>
<path fill="none" stroke="grey" stroke-width="2" d="M236.23,-512.01C244.21,-509.4 252.95,-506.56 261,-504 301.7,-491.04 347.99,-476.72 382.13,-466.24"/>
<polygon fill="grey" stroke="grey" stroke-width="2" points="383.33,-469.53 391.87,-463.25 381.28,-462.83 383.33,-469.53"/>
</g>
<!-- 6 -->
<g id="node7" class="node">
<title>6</title>
<path fill="none" stroke="#d88556" stroke-width="2" stroke-dasharray="5,2" d="M120,-612C120,-612 40,-612 40,-612 34,-612 28,-606 28,-600 28,-600 28,-588 28,-588 28,-582 34,-576 40,-576 40,-576 120,-576 120,-576 126,-576 132,-582 132,-588 132,-588 132,-600 132,-600 132,-606 126,-612 120,-612"/>
<text text-anchor="middle" x="80" y="-591.5" font-family="sans" font-size="10.00">umi_tools_extract</text>
</g>
<!-- 6&#45;&gt;5 -->
<g id="edge13" class="edge">
<title>6&#45;&gt;5</title>
<path fill="none" stroke="grey" stroke-width="2" d="M111.56,-575.88C130.1,-565.81 153.61,-553.05 172.9,-542.59"/>
<polygon fill="grey" stroke="grey" stroke-width="2" points="174.58,-545.66 181.7,-537.81 171.24,-539.51 174.58,-545.66"/>
</g>
<!-- 7 -->
<g id="node8" class="node">
<title>7</title>
<path fill="none" stroke="#5682d8" stroke-width="2" stroke-dasharray="5,2" d="M106.5,-684C106.5,-684 41.5,-684 41.5,-684 35.5,-684 29.5,-678 29.5,-672 29.5,-672 29.5,-660 29.5,-660 29.5,-654 35.5,-648 41.5,-648 41.5,-648 106.5,-648 106.5,-648 112.5,-648 118.5,-654 118.5,-660 118.5,-660 118.5,-672 118.5,-672 118.5,-678 112.5,-684 106.5,-684"/>
<text text-anchor="middle" x="74" y="-663.5" font-family="sans" font-size="10.00">wash_whitelist</text>
</g>
<!-- 7&#45;&gt;6 -->
<g id="edge15" class="edge">
<title>7&#45;&gt;6</title>
<path fill="none" stroke="grey" stroke-width="2" d="M75.48,-647.7C76.14,-639.98 76.94,-630.71 77.68,-622.11"/>
<polygon fill="grey" stroke="grey" stroke-width="2" points="81.17,-622.37 78.53,-612.1 74.19,-621.77 81.17,-622.37"/>
</g>
<!-- 8 -->
<g id="node9" class="node">
<title>8</title>
<path fill="none" stroke="#afd856" stroke-width="2" stroke-dasharray="5,2" d="M114,-783C114,-783 12,-783 12,-783 6,-783 0,-777 0,-771 0,-771 0,-732 0,-732 0,-726 6,-720 12,-720 12,-720 114,-720 114,-720 120,-720 126,-726 126,-732 126,-732 126,-771 126,-771 126,-777 120,-783 114,-783"/>
<text text-anchor="middle" x="63" y="-771" font-family="sans" font-size="10.00">umi_tools_whitelist</text>
<text text-anchor="middle" x="63" y="-760" font-family="sans" font-size="10.00">library: yt&#45;8&#45;5</text>
<text text-anchor="middle" x="63" y="-749" font-family="sans" font-size="10.00">project: AAV_Microglia</text>
<text text-anchor="middle" x="63" y="-738" font-family="sans" font-size="10.00">sample: yt&#45;8&#45;5</text>
<text text-anchor="middle" x="63" y="-727" font-family="sans" font-size="10.00">user: LinRui</text>
</g>
<!-- 8&#45;&gt;7 -->
<g id="edge16" class="edge">
<title>8&#45;&gt;7</title>
<path fill="none" stroke="grey" stroke-width="2" d="M67.03,-719.88C68.14,-711.47 69.34,-702.4 70.42,-694.19"/>
<polygon fill="grey" stroke="grey" stroke-width="2" points="73.92,-694.4 71.76,-684.03 66.98,-693.48 73.92,-694.4"/>
</g>
<!-- 9 -->
<g id="node10" class="node">
<title>9</title>
<path fill="none" stroke="#d6d856" stroke-width="2" stroke-dasharray="5,2" d="M452.5,-612C452.5,-612 411.5,-612 411.5,-612 405.5,-612 399.5,-606 399.5,-600 399.5,-600 399.5,-588 399.5,-588 399.5,-582 405.5,-576 411.5,-576 411.5,-576 452.5,-576 452.5,-576 458.5,-576 464.5,-582 464.5,-588 464.5,-588 464.5,-600 464.5,-600 464.5,-606 458.5,-612 452.5,-612"/>
<text text-anchor="middle" x="432" y="-591.5" font-family="sans" font-size="10.00">STAR_gen</text>
</g>
<!-- 9&#45;&gt;5 -->
<g id="edge14" class="edge">
<title>9&#45;&gt;5</title>
<path fill="none" stroke="grey" stroke-width="2" d="M399.12,-579.28C396.05,-578.13 392.98,-577.01 390,-576 333.66,-556.8 317.97,-557.25 261,-540 256.07,-538.51 250.89,-536.88 245.8,-535.25"/>
<polygon fill="grey" stroke="grey" stroke-width="2" points="246.78,-531.89 236.19,-532.14 244.62,-538.55 246.78,-531.89"/>
</g>
<!-- 9&#45;&gt;10 -->
<g id="edge23" class="edge">
<title>9&#45;&gt;10</title>
<path fill="none" stroke="grey" stroke-width="2" d="M432,-575.87C432,-551.67 432,-507.21 432,-478.39"/>
<polygon fill="grey" stroke="grey" stroke-width="2" points="435.5,-478.19 432,-468.19 428.5,-478.19 435.5,-478.19"/>
</g>
<!-- 11 -->
<g id="node12" class="node">
<title>11</title>
<path fill="none" stroke="#56a9d8" stroke-width="2" d="M312,-540C312,-540 282,-540 282,-540 276,-540 270,-534 270,-528 270,-528 270,-516 270,-516 270,-510 276,-504 282,-504 282,-504 312,-504 312,-504 318,-504 324,-510 324,-516 324,-516 324,-528 324,-528 324,-534 318,-540 312,-540"/>
<text text-anchor="middle" x="297" y="-519.5" font-family="sans" font-size="10.00">STAR</text>
</g>
<!-- 9&#45;&gt;11 -->
<g id="edge25" class="edge">
<title>9&#45;&gt;11</title>
<path fill="none" stroke="grey" stroke-width="2" d="M399.32,-576.05C379.43,-565.74 353.97,-552.54 333.43,-541.89"/>
<polygon fill="grey" stroke="grey" stroke-width="2" points="334.86,-538.69 324.38,-537.19 331.64,-544.9 334.86,-538.69"/>
</g>
<!-- 15 -->
<g id="node16" class="node">
<title>15</title>
<path fill="none" stroke="#56a9d8" stroke-width="2" d="M385,-540C385,-540 355,-540 355,-540 349,-540 343,-534 343,-528 343,-528 343,-516 343,-516 343,-510 349,-504 355,-504 355,-504 385,-504 385,-504 391,-504 397,-510 397,-516 397,-516 397,-528 397,-528 397,-534 391,-540 385,-540"/>
<text text-anchor="middle" x="370" y="-519.5" font-family="sans" font-size="10.00">STAR</text>
</g>
<!-- 9&#45;&gt;15 -->
<g id="edge29" class="edge">
<title>9&#45;&gt;15</title>
<path fill="none" stroke="grey" stroke-width="2" d="M416.67,-575.7C409.24,-567.3 400.18,-557.07 392.02,-547.86"/>
<polygon fill="grey" stroke="grey" stroke-width="2" points="394.4,-545.27 385.15,-540.1 389.16,-549.91 394.4,-545.27"/>
</g>
<!-- 19 -->
<g id="node20" class="node">
<title>19</title>
<path fill="none" stroke="#56a9d8" stroke-width="2" d="M508,-540C508,-540 478,-540 478,-540 472,-540 466,-534 466,-528 466,-528 466,-516 466,-516 466,-510 472,-504 478,-504 478,-504 508,-504 508,-504 514,-504 520,-510 520,-516 520,-516 520,-528 520,-528 520,-534 514,-540 508,-540"/>
<text text-anchor="middle" x="493" y="-519.5" font-family="sans" font-size="10.00">STAR</text>
</g>
<!-- 9&#45;&gt;19 -->
<g id="edge33" class="edge">
<title>9&#45;&gt;19</title>
<path fill="none" stroke="grey" stroke-width="2" d="M447.08,-575.7C454.39,-567.3 463.31,-557.07 471.34,-547.86"/>
<polygon fill="grey" stroke="grey" stroke-width="2" points="474.16,-549.94 478.09,-540.1 468.89,-545.34 474.16,-549.94"/>
</g>
<!-- 23 -->
<g id="node24" class="node">
<title>23</title>
<path fill="none" stroke="#56a9d8" stroke-width="2" d="M592,-540C592,-540 562,-540 562,-540 556,-540 550,-534 550,-528 550,-528 550,-516 550,-516 550,-510 556,-504 562,-504 562,-504 592,-504 592,-504 598,-504 604,-510 604,-516 604,-516 604,-528 604,-528 604,-534 598,-540 592,-540"/>
<text text-anchor="middle" x="577" y="-519.5" font-family="sans" font-size="10.00">STAR</text>
</g>
<!-- 9&#45;&gt;23 -->
<g id="edge37" class="edge">
<title>9&#45;&gt;23</title>
<path fill="none" stroke="grey" stroke-width="2" d="M464.54,-577.29C487.14,-566.38 517.28,-551.83 540.67,-540.54"/>
<polygon fill="grey" stroke="grey" stroke-width="2" points="542.43,-543.57 549.92,-536.08 539.39,-537.27 542.43,-543.57"/>
</g>
<!-- 27 -->
<g id="node28" class="node">
<title>27</title>
<path fill="none" stroke="#56a9d8" stroke-width="2" d="M682,-540C682,-540 652,-540 652,-540 646,-540 640,-534 640,-528 640,-528 640,-516 640,-516 640,-510 646,-504 652,-504 652,-504 682,-504 682,-504 688,-504 694,-510 694,-516 694,-516 694,-528 694,-528 694,-534 688,-540 682,-540"/>
<text text-anchor="middle" x="667" y="-519.5" font-family="sans" font-size="10.00">STAR</text>
</g>
<!-- 9&#45;&gt;27 -->
<g id="edge41" class="edge">
<title>9&#45;&gt;27</title>
<path fill="none" stroke="grey" stroke-width="2" d="M464.86,-579.22C467.93,-578.08 471.01,-576.99 474,-576 534.6,-555.99 551.66,-557.59 613,-540 618.49,-538.43 624.27,-536.69 629.93,-534.95"/>
<polygon fill="grey" stroke="grey" stroke-width="2" points="631.39,-538.16 639.89,-531.84 629.3,-531.48 631.39,-538.16"/>
</g>
<!-- 10&#45;&gt;4 -->
<g id="edge12" class="edge">
<title>10&#45;&gt;4</title>
<path fill="none" stroke="grey" stroke-width="2" d="M391.83,-438.88C354.69,-429.31 297.78,-414.15 240.33,-396.32"/>
<polygon fill="grey" stroke="grey" stroke-width="2" points="241.33,-392.97 230.74,-393.32 239.24,-399.65 241.33,-392.97"/>
</g>
<!-- 34 -->
<g id="node35" class="node">
<title>34</title>
<path fill="none" stroke="#56d8d8" stroke-width="2" d="M315.5,-396C315.5,-396 260.5,-396 260.5,-396 254.5,-396 248.5,-390 248.5,-384 248.5,-384 248.5,-372 248.5,-372 248.5,-366 254.5,-360 260.5,-360 260.5,-360 315.5,-360 315.5,-360 321.5,-360 327.5,-366 327.5,-372 327.5,-372 327.5,-384 327.5,-384 327.5,-390 321.5,-396 315.5,-396"/>
<text text-anchor="middle" x="288" y="-375.5" font-family="sans" font-size="10.00">featurecount</text>
</g>
<!-- 10&#45;&gt;34 -->
<g id="edge48" class="edge">
<title>10&#45;&gt;34</title>
<path fill="none" stroke="grey" stroke-width="2" d="M396.77,-431.88C377.42,-422.47 353.23,-410.71 332.57,-400.67"/>
<polygon fill="grey" stroke="grey" stroke-width="2" points="333.89,-397.41 323.36,-396.19 330.83,-403.71 333.89,-397.41"/>
</g>
<!-- 38 -->
<g id="node39" class="node">
<title>38</title>
<path fill="none" stroke="#56d8d8" stroke-width="2" d="M412.5,-396C412.5,-396 357.5,-396 357.5,-396 351.5,-396 345.5,-390 345.5,-384 345.5,-384 345.5,-372 345.5,-372 345.5,-366 351.5,-360 357.5,-360 357.5,-360 412.5,-360 412.5,-360 418.5,-360 424.5,-366 424.5,-372 424.5,-372 424.5,-384 424.5,-384 424.5,-390 418.5,-396 412.5,-396"/>
<text text-anchor="middle" x="385" y="-375.5" font-family="sans" font-size="10.00">featurecount</text>
</g>
<!-- 10&#45;&gt;38 -->
<g id="edge53" class="edge">
<title>10&#45;&gt;38</title>
<path fill="none" stroke="grey" stroke-width="2" d="M420.38,-431.7C414.86,-423.47 408.15,-413.48 402.07,-404.42"/>
<polygon fill="grey" stroke="grey" stroke-width="2" points="404.96,-402.46 396.48,-396.1 399.15,-406.36 404.96,-402.46"/>
</g>
<!-- 42 -->
<g id="node43" class="node">
<title>42</title>
<path fill="none" stroke="#56d8d8" stroke-width="2" d="M509.5,-396C509.5,-396 454.5,-396 454.5,-396 448.5,-396 442.5,-390 442.5,-384 442.5,-384 442.5,-372 442.5,-372 442.5,-366 448.5,-360 454.5,-360 454.5,-360 509.5,-360 509.5,-360 515.5,-360 521.5,-366 521.5,-372 521.5,-372 521.5,-384 521.5,-384 521.5,-390 515.5,-396 509.5,-396"/>
<text text-anchor="middle" x="482" y="-375.5" font-family="sans" font-size="10.00">featurecount</text>
</g>
<!-- 10&#45;&gt;42 -->
<g id="edge58" class="edge">
<title>10&#45;&gt;42</title>
<path fill="none" stroke="grey" stroke-width="2" d="M444.36,-431.7C450.23,-423.47 457.37,-413.48 463.84,-404.42"/>
<polygon fill="grey" stroke="grey" stroke-width="2" points="466.82,-406.28 469.78,-396.1 461.12,-402.21 466.82,-406.28"/>
</g>
<!-- 46 -->
<g id="node47" class="node">
<title>46</title>
<path fill="none" stroke="#56d8d8" stroke-width="2" d="M606.5,-396C606.5,-396 551.5,-396 551.5,-396 545.5,-396 539.5,-390 539.5,-384 539.5,-384 539.5,-372 539.5,-372 539.5,-366 545.5,-360 551.5,-360 551.5,-360 606.5,-360 606.5,-360 612.5,-360 618.5,-366 618.5,-372 618.5,-372 618.5,-384 618.5,-384 618.5,-390 612.5,-396 606.5,-396"/>
<text text-anchor="middle" x="579" y="-375.5" font-family="sans" font-size="10.00">featurecount</text>
</g>
<!-- 10&#45;&gt;46 -->
<g id="edge63" class="edge">
<title>10&#45;&gt;46</title>
<path fill="none" stroke="grey" stroke-width="2" d="M467.96,-431.88C487.88,-422.39 512.82,-410.51 534.02,-400.42"/>
<polygon fill="grey" stroke="grey" stroke-width="2" points="535.63,-403.53 543.16,-396.07 532.62,-397.21 535.63,-403.53"/>
</g>
<!-- 50 -->
<g id="node51" class="node">
<title>50</title>
<path fill="none" stroke="#56d8d8" stroke-width="2" d="M703.5,-396C703.5,-396 648.5,-396 648.5,-396 642.5,-396 636.5,-390 636.5,-384 636.5,-384 636.5,-372 636.5,-372 636.5,-366 642.5,-360 648.5,-360 648.5,-360 703.5,-360 703.5,-360 709.5,-360 715.5,-366 715.5,-372 715.5,-372 715.5,-384 715.5,-384 715.5,-390 709.5,-396 703.5,-396"/>
<text text-anchor="middle" x="676" y="-375.5" font-family="sans" font-size="10.00">featurecount</text>
</g>
<!-- 10&#45;&gt;50 -->
<g id="edge68" class="edge">
<title>10&#45;&gt;50</title>
<path fill="none" stroke="grey" stroke-width="2" d="M472.19,-438.94C509.69,-429.35 567.39,-414.13 626.6,-396.02"/>
<polygon fill="grey" stroke="grey" stroke-width="2" points="627.97,-399.26 636.5,-392.97 625.91,-392.57 627.97,-399.26"/>
</g>
<!-- 11&#45;&gt;10 -->
<g id="edge18" class="edge">
<title>11&#45;&gt;10</title>
<path fill="none" stroke="grey" stroke-width="2" d="M324.32,-506.83C343.2,-497.05 368.66,-483.84 390.09,-472.73"/>
<polygon fill="grey" stroke="grey" stroke-width="2" points="391.73,-475.82 399,-468.11 388.51,-469.61 391.73,-475.82"/>
</g>
<!-- 11&#45;&gt;34 -->
<g id="edge47" class="edge">
<title>11&#45;&gt;34</title>
<path fill="none" stroke="grey" stroke-width="2" d="M295.91,-503.87C294.38,-479.67 291.56,-435.21 289.74,-406.39"/>
<polygon fill="grey" stroke="grey" stroke-width="2" points="293.22,-405.95 289.09,-396.19 286.23,-406.39 293.22,-405.95"/>
</g>
<!-- 12 -->
<g id="node13" class="node">
<title>12</title>
<path fill="none" stroke="#d88556" stroke-width="2" stroke-dasharray="5,2" d="M247,-612C247,-612 167,-612 167,-612 161,-612 155,-606 155,-600 155,-600 155,-588 155,-588 155,-582 161,-576 167,-576 167,-576 247,-576 247,-576 253,-576 259,-582 259,-588 259,-588 259,-600 259,-600 259,-606 253,-612 247,-612"/>
<text text-anchor="middle" x="207" y="-591.5" font-family="sans" font-size="10.00">umi_tools_extract</text>
</g>
<!-- 12&#45;&gt;11 -->
<g id="edge24" class="edge">
<title>12&#45;&gt;11</title>
<path fill="none" stroke="grey" stroke-width="2" d="M229.25,-575.7C240.58,-566.88 254.53,-556.03 266.82,-546.47"/>
<polygon fill="grey" stroke="grey" stroke-width="2" points="269.26,-549.01 275.01,-540.1 264.97,-543.48 269.26,-549.01"/>
</g>
<!-- 13 -->
<g id="node14" class="node">
<title>13</title>
<path fill="none" stroke="#5682d8" stroke-width="2" stroke-dasharray="5,2" d="M239.5,-684C239.5,-684 174.5,-684 174.5,-684 168.5,-684 162.5,-678 162.5,-672 162.5,-672 162.5,-660 162.5,-660 162.5,-654 168.5,-648 174.5,-648 174.5,-648 239.5,-648 239.5,-648 245.5,-648 251.5,-654 251.5,-660 251.5,-660 251.5,-672 251.5,-672 251.5,-678 245.5,-684 239.5,-684"/>
<text text-anchor="middle" x="207" y="-663.5" font-family="sans" font-size="10.00">wash_whitelist</text>
</g>
<!-- 13&#45;&gt;12 -->
<g id="edge26" class="edge">
<title>13&#45;&gt;12</title>
<path fill="none" stroke="grey" stroke-width="2" d="M207,-647.7C207,-639.98 207,-630.71 207,-622.11"/>
<polygon fill="grey" stroke="grey" stroke-width="2" points="210.5,-622.1 207,-612.1 203.5,-622.1 210.5,-622.1"/>
</g>
<!-- 14 -->
<g id="node15" class="node">
<title>14</title>
<path fill="none" stroke="#afd856" stroke-width="2" stroke-dasharray="5,2" d="M258,-783C258,-783 156,-783 156,-783 150,-783 144,-777 144,-771 144,-771 144,-732 144,-732 144,-726 150,-720 156,-720 156,-720 258,-720 258,-720 264,-720 270,-726 270,-732 270,-732 270,-771 270,-771 270,-777 264,-783 258,-783"/>
<text text-anchor="middle" x="207" y="-771" font-family="sans" font-size="10.00">umi_tools_whitelist</text>
<text text-anchor="middle" x="207" y="-760" font-family="sans" font-size="10.00">library: yt&#45;8&#45;6&#45;1</text>
<text text-anchor="middle" x="207" y="-749" font-family="sans" font-size="10.00">project: AAV_Microglia</text>
<text text-anchor="middle" x="207" y="-738" font-family="sans" font-size="10.00">sample: yt&#45;8&#45;6&#45;1</text>
<text text-anchor="middle" x="207" y="-727" font-family="sans" font-size="10.00">user: LinRui</text>
</g>
<!-- 14&#45;&gt;13 -->
<g id="edge27" class="edge">
<title>14&#45;&gt;13</title>
<path fill="none" stroke="grey" stroke-width="2" d="M207,-719.88C207,-711.47 207,-702.4 207,-694.19"/>
<polygon fill="grey" stroke="grey" stroke-width="2" points="210.5,-694.03 207,-684.03 203.5,-694.03 210.5,-694.03"/>
</g>
<!-- 15&#45;&gt;10 -->
<g id="edge19" class="edge">
<title>15&#45;&gt;10</title>
<path fill="none" stroke="grey" stroke-width="2" d="M385.33,-503.7C392.76,-495.3 401.82,-485.07 409.98,-475.86"/>
<polygon fill="grey" stroke="grey" stroke-width="2" points="412.84,-477.91 416.85,-468.1 407.6,-473.27 412.84,-477.91"/>
</g>
<!-- 15&#45;&gt;38 -->
<g id="edge52" class="edge">
<title>15&#45;&gt;38</title>
<path fill="none" stroke="grey" stroke-width="2" d="M371.81,-503.87C374.37,-479.67 379.06,-435.21 382.11,-406.39"/>
<polygon fill="grey" stroke="grey" stroke-width="2" points="385.61,-406.5 383.18,-396.19 378.65,-405.77 385.61,-406.5"/>
</g>
<!-- 16 -->
<g id="node17" class="node">
<title>16</title>
<path fill="none" stroke="#d88556" stroke-width="2" stroke-dasharray="5,2" d="M369,-612C369,-612 289,-612 289,-612 283,-612 277,-606 277,-600 277,-600 277,-588 277,-588 277,-582 283,-576 289,-576 289,-576 369,-576 369,-576 375,-576 381,-582 381,-588 381,-588 381,-600 381,-600 381,-606 375,-612 369,-612"/>
<text text-anchor="middle" x="329" y="-591.5" font-family="sans" font-size="10.00">umi_tools_extract</text>
</g>
<!-- 16&#45;&gt;15 -->
<g id="edge28" class="edge">
<title>16&#45;&gt;15</title>
<path fill="none" stroke="grey" stroke-width="2" d="M339.13,-575.7C343.85,-567.64 349.56,-557.89 354.78,-548.98"/>
<polygon fill="grey" stroke="grey" stroke-width="2" points="357.95,-550.5 359.98,-540.1 351.91,-546.96 357.95,-550.5"/>
</g>
<!-- 17 -->
<g id="node18" class="node">
<title>17</title>
<path fill="none" stroke="#5682d8" stroke-width="2" stroke-dasharray="5,2" d="M372.5,-684C372.5,-684 307.5,-684 307.5,-684 301.5,-684 295.5,-678 295.5,-672 295.5,-672 295.5,-660 295.5,-660 295.5,-654 301.5,-648 307.5,-648 307.5,-648 372.5,-648 372.5,-648 378.5,-648 384.5,-654 384.5,-660 384.5,-660 384.5,-672 384.5,-672 384.5,-678 378.5,-684 372.5,-684"/>
<text text-anchor="middle" x="340" y="-663.5" font-family="sans" font-size="10.00">wash_whitelist</text>
</g>
<!-- 17&#45;&gt;16 -->
<g id="edge30" class="edge">
<title>17&#45;&gt;16</title>
<path fill="none" stroke="grey" stroke-width="2" d="M337.28,-647.7C336.07,-639.98 334.61,-630.71 333.26,-622.11"/>
<polygon fill="grey" stroke="grey" stroke-width="2" points="336.7,-621.44 331.69,-612.1 329.78,-622.53 336.7,-621.44"/>
</g>
<!-- 18 -->
<g id="node19" class="node">
<title>18</title>
<path fill="none" stroke="#afd856" stroke-width="2" stroke-dasharray="5,2" d="M402,-783C402,-783 300,-783 300,-783 294,-783 288,-777 288,-771 288,-771 288,-732 288,-732 288,-726 294,-720 300,-720 300,-720 402,-720 402,-720 408,-720 414,-726 414,-732 414,-732 414,-771 414,-771 414,-777 408,-783 402,-783"/>
<text text-anchor="middle" x="351" y="-771" font-family="sans" font-size="10.00">umi_tools_whitelist</text>
<text text-anchor="middle" x="351" y="-760" font-family="sans" font-size="10.00">library: yt&#45;8&#45;6&#45;2</text>
<text text-anchor="middle" x="351" y="-749" font-family="sans" font-size="10.00">project: AAV_Microglia</text>
<text text-anchor="middle" x="351" y="-738" font-family="sans" font-size="10.00">sample: yt&#45;8&#45;6&#45;2</text>
<text text-anchor="middle" x="351" y="-727" font-family="sans" font-size="10.00">user: LinRui</text>
</g>
<!-- 18&#45;&gt;17 -->
<g id="edge31" class="edge">
<title>18&#45;&gt;17</title>
<path fill="none" stroke="grey" stroke-width="2" d="M346.97,-719.88C345.86,-711.47 344.66,-702.4 343.58,-694.19"/>
<polygon fill="grey" stroke="grey" stroke-width="2" points="347.02,-693.48 342.24,-684.03 340.08,-694.4 347.02,-693.48"/>
</g>
<!-- 19&#45;&gt;10 -->
<g id="edge20" class="edge">
<title>19&#45;&gt;10</title>
<path fill="none" stroke="grey" stroke-width="2" d="M477.92,-503.7C470.61,-495.3 461.69,-485.07 453.66,-475.86"/>
<polygon fill="grey" stroke="grey" stroke-width="2" points="456.11,-473.34 446.91,-468.1 450.84,-477.94 456.11,-473.34"/>
</g>
<!-- 19&#45;&gt;42 -->
<g id="edge57" class="edge">
<title>19&#45;&gt;42</title>
<path fill="none" stroke="grey" stroke-width="2" d="M491.67,-503.87C489.8,-479.67 486.35,-435.21 484.12,-406.39"/>
<polygon fill="grey" stroke="grey" stroke-width="2" points="487.59,-405.89 483.33,-396.19 480.61,-406.43 487.59,-405.89"/>
</g>
<!-- 20 -->
<g id="node21" class="node">
<title>20</title>
<path fill="none" stroke="#d88556" stroke-width="2" stroke-dasharray="5,2" d="M575,-612C575,-612 495,-612 495,-612 489,-612 483,-606 483,-600 483,-600 483,-588 483,-588 483,-582 489,-576 495,-576 495,-576 575,-576 575,-576 581,-576 587,-582 587,-588 587,-588 587,-600 587,-600 587,-606 581,-612 575,-612"/>
<text text-anchor="middle" x="535" y="-591.5" font-family="sans" font-size="10.00">umi_tools_extract</text>
</g>
<!-- 20&#45;&gt;19 -->
<g id="edge32" class="edge">
<title>20&#45;&gt;19</title>
<path fill="none" stroke="grey" stroke-width="2" d="M524.62,-575.7C519.74,-567.56 513.81,-557.69 508.42,-548.7"/>
<polygon fill="grey" stroke="grey" stroke-width="2" points="511.41,-546.88 503.26,-540.1 505.41,-550.48 511.41,-546.88"/>
</g>
<!-- 21 -->
<g id="node22" class="node">
<title>21</title>
<path fill="none" stroke="#5682d8" stroke-width="2" stroke-dasharray="5,2" d="M556.5,-684C556.5,-684 491.5,-684 491.5,-684 485.5,-684 479.5,-678 479.5,-672 479.5,-672 479.5,-660 479.5,-660 479.5,-654 485.5,-648 491.5,-648 491.5,-648 556.5,-648 556.5,-648 562.5,-648 568.5,-654 568.5,-660 568.5,-660 568.5,-672 568.5,-672 568.5,-678 562.5,-684 556.5,-684"/>
<text text-anchor="middle" x="524" y="-663.5" font-family="sans" font-size="10.00">wash_whitelist</text>
</g>
<!-- 21&#45;&gt;20 -->
<g id="edge34" class="edge">
<title>21&#45;&gt;20</title>
<path fill="none" stroke="grey" stroke-width="2" d="M526.72,-647.7C527.93,-639.98 529.39,-630.71 530.74,-622.11"/>
<polygon fill="grey" stroke="grey" stroke-width="2" points="534.22,-622.53 532.31,-612.1 527.3,-621.44 534.22,-622.53"/>
</g>
<!-- 22 -->
<g id="node23" class="node">
<title>22</title>
<path fill="none" stroke="#afd856" stroke-width="2" stroke-dasharray="5,2" d="M564,-783C564,-783 462,-783 462,-783 456,-783 450,-777 450,-771 450,-771 450,-732 450,-732 450,-726 456,-720 462,-720 462,-720 564,-720 564,-720 570,-720 576,-726 576,-732 576,-732 576,-771 576,-771 576,-777 570,-783 564,-783"/>
<text text-anchor="middle" x="513" y="-771" font-family="sans" font-size="10.00">umi_tools_whitelist</text>
<text text-anchor="middle" x="513" y="-760" font-family="sans" font-size="10.00">library: yt&#45;8&#45;6&#45;3</text>
<text text-anchor="middle" x="513" y="-749" font-family="sans" font-size="10.00">project: AAV_Microglia</text>
<text text-anchor="middle" x="513" y="-738" font-family="sans" font-size="10.00">sample: yt&#45;8&#45;6&#45;3</text>
<text text-anchor="middle" x="513" y="-727" font-family="sans" font-size="10.00">user: LinRui</text>
</g>
<!-- 22&#45;&gt;21 -->
<g id="edge35" class="edge">
<title>22&#45;&gt;21</title>
<path fill="none" stroke="grey" stroke-width="2" d="M517.03,-719.88C518.14,-711.47 519.34,-702.4 520.42,-694.19"/>
<polygon fill="grey" stroke="grey" stroke-width="2" points="523.92,-694.4 521.76,-684.03 516.98,-693.48 523.92,-694.4"/>
</g>
<!-- 23&#45;&gt;10 -->
<g id="edge21" class="edge">
<title>23&#45;&gt;10</title>
<path fill="none" stroke="grey" stroke-width="2" d="M549.73,-507.83C529.16,-497.9 500.5,-484.07 476.62,-472.54"/>
<polygon fill="grey" stroke="grey" stroke-width="2" points="477.91,-469.28 467.38,-468.08 474.87,-475.58 477.91,-469.28"/>
</g>
<!-- 23&#45;&gt;46 -->
<g id="edge62" class="edge">
<title>23&#45;&gt;46</title>
<path fill="none" stroke="grey" stroke-width="2" d="M577.24,-503.87C577.58,-479.67 578.21,-435.21 578.61,-406.39"/>
<polygon fill="grey" stroke="grey" stroke-width="2" points="582.12,-406.24 578.76,-396.19 575.12,-406.14 582.12,-406.24"/>
</g>
<!-- 24 -->
<g id="node25" class="node">
<title>24</title>
<path fill="none" stroke="#d88556" stroke-width="2" stroke-dasharray="5,2" d="M697,-612C697,-612 617,-612 617,-612 611,-612 605,-606 605,-600 605,-600 605,-588 605,-588 605,-582 611,-576 617,-576 617,-576 697,-576 697,-576 703,-576 709,-582 709,-588 709,-588 709,-600 709,-600 709,-606 703,-612 697,-612"/>
<text text-anchor="middle" x="657" y="-591.5" font-family="sans" font-size="10.00">umi_tools_extract</text>
</g>
<!-- 24&#45;&gt;23 -->
<g id="edge36" class="edge">
<title>24&#45;&gt;23</title>
<path fill="none" stroke="grey" stroke-width="2" d="M637.22,-575.7C627.25,-566.97 614.99,-556.24 604.14,-546.75"/>
<polygon fill="grey" stroke="grey" stroke-width="2" points="606.38,-544.06 596.55,-540.1 601.77,-549.32 606.38,-544.06"/>
</g>
<!-- 25 -->
<g id="node26" class="node">
<title>25</title>
<path fill="none" stroke="#5682d8" stroke-width="2" stroke-dasharray="5,2" d="M689.5,-684C689.5,-684 624.5,-684 624.5,-684 618.5,-684 612.5,-678 612.5,-672 612.5,-672 612.5,-660 612.5,-660 612.5,-654 618.5,-648 624.5,-648 624.5,-648 689.5,-648 689.5,-648 695.5,-648 701.5,-654 701.5,-660 701.5,-660 701.5,-672 701.5,-672 701.5,-678 695.5,-684 689.5,-684"/>
<text text-anchor="middle" x="657" y="-663.5" font-family="sans" font-size="10.00">wash_whitelist</text>
</g>
<!-- 25&#45;&gt;24 -->
<g id="edge38" class="edge">
<title>25&#45;&gt;24</title>
<path fill="none" stroke="grey" stroke-width="2" d="M657,-647.7C657,-639.98 657,-630.71 657,-622.11"/>
<polygon fill="grey" stroke="grey" stroke-width="2" points="660.5,-622.1 657,-612.1 653.5,-622.1 660.5,-622.1"/>
</g>
<!-- 26 -->
<g id="node27" class="node">
<title>26</title>
<path fill="none" stroke="#afd856" stroke-width="2" stroke-dasharray="5,2" d="M708,-783C708,-783 606,-783 606,-783 600,-783 594,-777 594,-771 594,-771 594,-732 594,-732 594,-726 600,-720 606,-720 606,-720 708,-720 708,-720 714,-720 720,-726 720,-732 720,-732 720,-771 720,-771 720,-777 714,-783 708,-783"/>
<text text-anchor="middle" x="657" y="-771" font-family="sans" font-size="10.00">umi_tools_whitelist</text>
<text text-anchor="middle" x="657" y="-760" font-family="sans" font-size="10.00">library: yt&#45;8&#45;6&#45;4</text>
<text text-anchor="middle" x="657" y="-749" font-family="sans" font-size="10.00">project: AAV_Microglia</text>
<text text-anchor="middle" x="657" y="-738" font-family="sans" font-size="10.00">sample: yt&#45;8&#45;6&#45;4</text>
<text text-anchor="middle" x="657" y="-727" font-family="sans" font-size="10.00">user: LinRui</text>
</g>
<!-- 26&#45;&gt;25 -->
<g id="edge39" class="edge">
<title>26&#45;&gt;25</title>
<path fill="none" stroke="grey" stroke-width="2" d="M657,-719.88C657,-711.47 657,-702.4 657,-694.19"/>
<polygon fill="grey" stroke="grey" stroke-width="2" points="660.5,-694.03 657,-684.03 653.5,-694.03 660.5,-694.03"/>
</g>
<!-- 27&#45;&gt;10 -->
<g id="edge22" class="edge">
<title>27&#45;&gt;10</title>
<path fill="none" stroke="grey" stroke-width="2" d="M639.84,-512.33C631.26,-509.63 621.75,-506.66 613,-504 568.9,-490.6 518.57,-475.91 482.2,-465.41"/>
<polygon fill="grey" stroke="grey" stroke-width="2" points="482.91,-461.97 472.33,-462.56 480.96,-468.69 482.91,-461.97"/>
</g>
<!-- 27&#45;&gt;50 -->
<g id="edge67" class="edge">
<title>27&#45;&gt;50</title>
<path fill="none" stroke="grey" stroke-width="2" d="M668.09,-503.87C669.62,-479.67 672.44,-435.21 674.26,-406.39"/>
<polygon fill="grey" stroke="grey" stroke-width="2" points="677.77,-406.39 674.91,-396.19 670.78,-405.95 677.77,-406.39"/>
</g>
<!-- 28 -->
<g id="node29" class="node">
<title>28</title>
<path fill="none" stroke="#d88556" stroke-width="2" stroke-dasharray="5,2" d="M830,-612C830,-612 750,-612 750,-612 744,-612 738,-606 738,-600 738,-600 738,-588 738,-588 738,-582 744,-576 750,-576 750,-576 830,-576 830,-576 836,-576 842,-582 842,-588 842,-588 842,-600 842,-600 842,-606 836,-612 830,-612"/>
<text text-anchor="middle" x="790" y="-591.5" font-family="sans" font-size="10.00">umi_tools_extract</text>
</g>
<!-- 28&#45;&gt;27 -->
<g id="edge40" class="edge">
<title>28&#45;&gt;27</title>
<path fill="none" stroke="grey" stroke-width="2" d="M759.91,-575.88C742.83,-566.16 721.33,-553.92 703.32,-543.67"/>
<polygon fill="grey" stroke="grey" stroke-width="2" points="704.68,-540.42 694.26,-538.51 701.22,-546.5 704.68,-540.42"/>
</g>
<!-- 29 -->
<g id="node30" class="node">
<title>29</title>
<path fill="none" stroke="#5682d8" stroke-width="2" stroke-dasharray="5,2" d="M827.5,-684C827.5,-684 762.5,-684 762.5,-684 756.5,-684 750.5,-678 750.5,-672 750.5,-672 750.5,-660 750.5,-660 750.5,-654 756.5,-648 762.5,-648 762.5,-648 827.5,-648 827.5,-648 833.5,-648 839.5,-654 839.5,-660 839.5,-660 839.5,-672 839.5,-672 839.5,-678 833.5,-684 827.5,-684"/>
<text text-anchor="middle" x="795" y="-663.5" font-family="sans" font-size="10.00">wash_whitelist</text>
</g>
<!-- 29&#45;&gt;28 -->
<g id="edge42" class="edge">
<title>29&#45;&gt;28</title>
<path fill="none" stroke="grey" stroke-width="2" d="M793.76,-647.7C793.21,-639.98 792.55,-630.71 791.94,-622.11"/>
<polygon fill="grey" stroke="grey" stroke-width="2" points="795.43,-621.83 791.22,-612.1 788.44,-622.33 795.43,-621.83"/>
</g>
<!-- 30 -->
<g id="node31" class="node">
<title>30</title>
<path fill="none" stroke="#afd856" stroke-width="2" stroke-dasharray="5,2" d="M852,-783C852,-783 750,-783 750,-783 744,-783 738,-777 738,-771 738,-771 738,-732 738,-732 738,-726 744,-720 750,-720 750,-720 852,-720 852,-720 858,-720 864,-726 864,-732 864,-732 864,-771 864,-771 864,-777 858,-783 852,-783"/>
<text text-anchor="middle" x="801" y="-771" font-family="sans" font-size="10.00">umi_tools_whitelist</text>
<text text-anchor="middle" x="801" y="-760" font-family="sans" font-size="10.00">library: yt&#45;8&#45;6&#45;5</text>
<text text-anchor="middle" x="801" y="-749" font-family="sans" font-size="10.00">project: AAV_Microglia</text>
<text text-anchor="middle" x="801" y="-738" font-family="sans" font-size="10.00">sample: yt&#45;8&#45;6&#45;5</text>
<text text-anchor="middle" x="801" y="-727" font-family="sans" font-size="10.00">user: LinRui</text>
</g>
<!-- 30&#45;&gt;29 -->
<g id="edge43" class="edge">
<title>30&#45;&gt;29</title>
<path fill="none" stroke="grey" stroke-width="2" d="M798.8,-719.88C798.2,-711.47 797.54,-702.4 796.95,-694.19"/>
<polygon fill="grey" stroke="grey" stroke-width="2" points="800.43,-693.75 796.22,-684.03 793.45,-694.25 800.43,-693.75"/>
</g>
<!-- 31 -->
<g id="node32" class="node">
<title>31</title>
<path fill="none" stroke="#d8ac56" stroke-width="2" d="M322.5,-180C322.5,-180 273.5,-180 273.5,-180 267.5,-180 261.5,-174 261.5,-168 261.5,-168 261.5,-156 261.5,-156 261.5,-150 267.5,-144 273.5,-144 273.5,-144 322.5,-144 322.5,-144 328.5,-144 334.5,-150 334.5,-156 334.5,-156 334.5,-168 334.5,-168 334.5,-174 328.5,-180 322.5,-180"/>
<text text-anchor="middle" x="298" y="-159.5" font-family="sans" font-size="10.00">append_sfx</text>
</g>
<!-- 31&#45;&gt;0 -->
<g id="edge2" class="edge">
<title>31&#45;&gt;0</title>
<path fill="none" stroke="grey" stroke-width="2" d="M311.37,-143.8C325.8,-125.51 349.7,-95.99 372,-72 381.03,-62.29 391.39,-52.07 400.68,-43.24"/>
<polygon fill="grey" stroke="grey" stroke-width="2" points="403.29,-45.58 408.17,-36.17 398.49,-40.49 403.29,-45.58"/>
</g>
<!-- 31&#45;&gt;51 -->
<g id="edge70" class="edge">
<title>31&#45;&gt;51</title>
<path fill="none" stroke="grey" stroke-width="2" d="M329.56,-143.88C346.66,-134.6 367.98,-123.03 386.32,-113.08"/>
<polygon fill="grey" stroke="grey" stroke-width="2" points="388.2,-116.04 395.32,-108.19 384.86,-109.88 388.2,-116.04"/>
</g>
<!-- 32 -->
<g id="node33" class="node">
<title>32</title>
<path fill="none" stroke="#56d8a9" stroke-width="2" d="M298.5,-252C298.5,-252 225.5,-252 225.5,-252 219.5,-252 213.5,-246 213.5,-240 213.5,-240 213.5,-228 213.5,-228 213.5,-222 219.5,-216 225.5,-216 225.5,-216 298.5,-216 298.5,-216 304.5,-216 310.5,-222 310.5,-228 310.5,-228 310.5,-240 310.5,-240 310.5,-246 304.5,-252 298.5,-252"/>
<text text-anchor="middle" x="262" y="-231.5" font-family="sans" font-size="10.00">umi_tools_count</text>
</g>
<!-- 32&#45;&gt;31 -->
<g id="edge44" class="edge">
<title>32&#45;&gt;31</title>
<path fill="none" stroke="grey" stroke-width="2" d="M270.9,-215.7C275,-207.73 279.95,-198.1 284.49,-189.26"/>
<polygon fill="grey" stroke="grey" stroke-width="2" points="287.74,-190.6 289.2,-180.1 281.52,-187.4 287.74,-190.6"/>
</g>
<!-- 33 -->
<g id="node34" class="node">
<title>33</title>
<path fill="none" stroke="#59d856" stroke-width="2" d="M298.5,-324C298.5,-324 227.5,-324 227.5,-324 221.5,-324 215.5,-318 215.5,-312 215.5,-312 215.5,-300 215.5,-300 215.5,-294 221.5,-288 227.5,-288 227.5,-288 298.5,-288 298.5,-288 304.5,-288 310.5,-294 310.5,-300 310.5,-300 310.5,-312 310.5,-312 310.5,-318 304.5,-324 298.5,-324"/>
<text text-anchor="middle" x="263" y="-303.5" font-family="sans" font-size="10.00">sambamba_sort</text>
</g>
<!-- 33&#45;&gt;32 -->
<g id="edge45" class="edge">
<title>33&#45;&gt;32</title>
<path fill="none" stroke="grey" stroke-width="2" d="M262.75,-287.7C262.64,-279.98 262.51,-270.71 262.39,-262.11"/>
<polygon fill="grey" stroke="grey" stroke-width="2" points="265.89,-262.05 262.24,-252.1 258.89,-262.15 265.89,-262.05"/>
</g>
<!-- 34&#45;&gt;33 -->
<g id="edge46" class="edge">
<title>34&#45;&gt;33</title>
<path fill="none" stroke="grey" stroke-width="2" d="M281.82,-359.7C279,-351.81 275.61,-342.3 272.48,-333.55"/>
<polygon fill="grey" stroke="grey" stroke-width="2" points="275.77,-332.34 269.11,-324.1 269.18,-334.7 275.77,-332.34"/>
</g>
<!-- 35 -->
<g id="node36" class="node">
<title>35</title>
<path fill="none" stroke="#d8ac56" stroke-width="2" d="M413.5,-180C413.5,-180 364.5,-180 364.5,-180 358.5,-180 352.5,-174 352.5,-168 352.5,-168 352.5,-156 352.5,-156 352.5,-150 358.5,-144 364.5,-144 364.5,-144 413.5,-144 413.5,-144 419.5,-144 425.5,-150 425.5,-156 425.5,-156 425.5,-168 425.5,-168 425.5,-174 419.5,-180 413.5,-180"/>
<text text-anchor="middle" x="389" y="-159.5" font-family="sans" font-size="10.00">append_sfx</text>
</g>
<!-- 35&#45;&gt;0 -->
<g id="edge3" class="edge">
<title>35&#45;&gt;0</title>
<path fill="none" stroke="grey" stroke-width="2" d="M382.74,-143.67C377.12,-125.28 371.02,-95.67 380,-72 383.97,-61.54 391.05,-51.83 398.53,-43.65"/>
<polygon fill="grey" stroke="grey" stroke-width="2" points="401.23,-45.89 405.73,-36.3 396.23,-40.99 401.23,-45.89"/>
</g>
<!-- 35&#45;&gt;51 -->
<g id="edge71" class="edge">
<title>35&#45;&gt;51</title>
<path fill="none" stroke="grey" stroke-width="2" d="M398.39,-143.7C402.76,-135.64 408.06,-125.89 412.9,-116.98"/>
<polygon fill="grey" stroke="grey" stroke-width="2" points="416.02,-118.56 417.71,-108.1 409.87,-115.22 416.02,-118.56"/>
</g>
<!-- 36 -->
<g id="node37" class="node">
<title>36</title>
<path fill="none" stroke="#56d8a9" stroke-width="2" d="M413.5,-252C413.5,-252 340.5,-252 340.5,-252 334.5,-252 328.5,-246 328.5,-240 328.5,-240 328.5,-228 328.5,-228 328.5,-222 334.5,-216 340.5,-216 340.5,-216 413.5,-216 413.5,-216 419.5,-216 425.5,-222 425.5,-228 425.5,-228 425.5,-240 425.5,-240 425.5,-246 419.5,-252 413.5,-252"/>
<text text-anchor="middle" x="377" y="-231.5" font-family="sans" font-size="10.00">umi_tools_count</text>
</g>
<!-- 36&#45;&gt;35 -->
<g id="edge49" class="edge">
<title>36&#45;&gt;35</title>
<path fill="none" stroke="grey" stroke-width="2" d="M379.97,-215.7C381.29,-207.98 382.88,-198.71 384.35,-190.11"/>
<polygon fill="grey" stroke="grey" stroke-width="2" points="387.83,-190.55 386.07,-180.1 380.93,-189.37 387.83,-190.55"/>
</g>
<!-- 37 -->
<g id="node38" class="node">
<title>37</title>
<path fill="none" stroke="#59d856" stroke-width="2" d="M412.5,-324C412.5,-324 341.5,-324 341.5,-324 335.5,-324 329.5,-318 329.5,-312 329.5,-312 329.5,-300 329.5,-300 329.5,-294 335.5,-288 341.5,-288 341.5,-288 412.5,-288 412.5,-288 418.5,-288 424.5,-294 424.5,-300 424.5,-300 424.5,-312 424.5,-312 424.5,-318 418.5,-324 412.5,-324"/>
<text text-anchor="middle" x="377" y="-303.5" font-family="sans" font-size="10.00">sambamba_sort</text>
</g>
<!-- 37&#45;&gt;36 -->
<g id="edge50" class="edge">
<title>37&#45;&gt;36</title>
<path fill="none" stroke="grey" stroke-width="2" d="M377,-287.7C377,-279.98 377,-270.71 377,-262.11"/>
<polygon fill="grey" stroke="grey" stroke-width="2" points="380.5,-262.1 377,-252.1 373.5,-262.1 380.5,-262.1"/>
</g>
<!-- 38&#45;&gt;37 -->
<g id="edge51" class="edge">
<title>38&#45;&gt;37</title>
<path fill="none" stroke="grey" stroke-width="2" d="M383.02,-359.7C382.14,-351.98 381.08,-342.71 380.1,-334.11"/>
<polygon fill="grey" stroke="grey" stroke-width="2" points="383.57,-333.64 378.95,-324.1 376.61,-334.44 383.57,-333.64"/>
</g>
<!-- 39 -->
<g id="node40" class="node">
<title>39</title>
<path fill="none" stroke="#d8ac56" stroke-width="2" d="M504.5,-180C504.5,-180 455.5,-180 455.5,-180 449.5,-180 443.5,-174 443.5,-168 443.5,-168 443.5,-156 443.5,-156 443.5,-150 449.5,-144 455.5,-144 455.5,-144 504.5,-144 504.5,-144 510.5,-144 516.5,-150 516.5,-156 516.5,-156 516.5,-168 516.5,-168 516.5,-174 510.5,-180 504.5,-180"/>
<text text-anchor="middle" x="480" y="-159.5" font-family="sans" font-size="10.00">append_sfx</text>
</g>
<!-- 39&#45;&gt;0 -->
<g id="edge4" class="edge">
<title>39&#45;&gt;0</title>
<path fill="none" stroke="grey" stroke-width="2" d="M482.03,-143.86C483.51,-125.36 483.81,-95.43 474,-72 469.68,-61.68 462.5,-52.01 455.04,-43.82"/>
<polygon fill="grey" stroke="grey" stroke-width="2" points="457.36,-41.19 447.88,-36.45 452.34,-46.07 457.36,-41.19"/>
</g>
<!-- 39&#45;&gt;51 -->
<g id="edge72" class="edge">
<title>39&#45;&gt;51</title>
<path fill="none" stroke="grey" stroke-width="2" d="M466.9,-143.7C460.61,-135.39 452.95,-125.28 446.04,-116.14"/>
<polygon fill="grey" stroke="grey" stroke-width="2" points="448.78,-113.96 439.95,-108.1 443.2,-118.19 448.78,-113.96"/>
</g>
<!-- 40 -->
<g id="node41" class="node">
<title>40</title>
<path fill="none" stroke="#56d8a9" stroke-width="2" d="M528.5,-252C528.5,-252 455.5,-252 455.5,-252 449.5,-252 443.5,-246 443.5,-240 443.5,-240 443.5,-228 443.5,-228 443.5,-222 449.5,-216 455.5,-216 455.5,-216 528.5,-216 528.5,-216 534.5,-216 540.5,-222 540.5,-228 540.5,-228 540.5,-240 540.5,-240 540.5,-246 534.5,-252 528.5,-252"/>
<text text-anchor="middle" x="492" y="-231.5" font-family="sans" font-size="10.00">umi_tools_count</text>
</g>
<!-- 40&#45;&gt;39 -->
<g id="edge54" class="edge">
<title>40&#45;&gt;39</title>
<path fill="none" stroke="grey" stroke-width="2" d="M489.03,-215.7C487.71,-207.98 486.12,-198.71 484.65,-190.11"/>
<polygon fill="grey" stroke="grey" stroke-width="2" points="488.07,-189.37 482.93,-180.1 481.17,-190.55 488.07,-189.37"/>
</g>
<!-- 41 -->
<g id="node42" class="node">
<title>41</title>
<path fill="none" stroke="#59d856" stroke-width="2" d="M526.5,-324C526.5,-324 455.5,-324 455.5,-324 449.5,-324 443.5,-318 443.5,-312 443.5,-312 443.5,-300 443.5,-300 443.5,-294 449.5,-288 455.5,-288 455.5,-288 526.5,-288 526.5,-288 532.5,-288 538.5,-294 538.5,-300 538.5,-300 538.5,-312 538.5,-312 538.5,-318 532.5,-324 526.5,-324"/>
<text text-anchor="middle" x="491" y="-303.5" font-family="sans" font-size="10.00">sambamba_sort</text>
</g>
<!-- 41&#45;&gt;40 -->
<g id="edge55" class="edge">
<title>41&#45;&gt;40</title>
<path fill="none" stroke="grey" stroke-width="2" d="M491.25,-287.7C491.36,-279.98 491.49,-270.71 491.61,-262.11"/>
<polygon fill="grey" stroke="grey" stroke-width="2" points="495.11,-262.15 491.76,-252.1 488.11,-262.05 495.11,-262.15"/>
</g>
<!-- 42&#45;&gt;41 -->
<g id="edge56" class="edge">
<title>42&#45;&gt;41</title>
<path fill="none" stroke="grey" stroke-width="2" d="M484.22,-359.7C485.22,-351.98 486.41,-342.71 487.51,-334.11"/>
<polygon fill="grey" stroke="grey" stroke-width="2" points="491,-334.47 488.8,-324.1 484.05,-333.58 491,-334.47"/>
</g>
<!-- 43 -->
<g id="node44" class="node">
<title>43</title>
<path fill="none" stroke="#d8ac56" stroke-width="2" d="M595.5,-180C595.5,-180 546.5,-180 546.5,-180 540.5,-180 534.5,-174 534.5,-168 534.5,-168 534.5,-156 534.5,-156 534.5,-150 540.5,-144 546.5,-144 546.5,-144 595.5,-144 595.5,-144 601.5,-144 607.5,-150 607.5,-156 607.5,-156 607.5,-168 607.5,-168 607.5,-174 601.5,-180 595.5,-180"/>
<text text-anchor="middle" x="571" y="-159.5" font-family="sans" font-size="10.00">append_sfx</text>
</g>
<!-- 43&#45;&gt;0 -->
<g id="edge5" class="edge">
<title>43&#45;&gt;0</title>
<path fill="none" stroke="grey" stroke-width="2" d="M557.45,-143.81C542.5,-125.28 517.33,-95.31 493,-72 482.24,-61.69 469.65,-51.24 458.37,-42.37"/>
<polygon fill="grey" stroke="grey" stroke-width="2" points="460.48,-39.57 450.43,-36.21 456.19,-45.11 460.48,-39.57"/>
</g>
<!-- 43&#45;&gt;51 -->
<g id="edge73" class="edge">
<title>43&#45;&gt;51</title>
<path fill="none" stroke="grey" stroke-width="2" d="M535.77,-143.88C516.42,-134.47 492.23,-122.71 471.57,-112.67"/>
<polygon fill="grey" stroke="grey" stroke-width="2" points="472.89,-109.41 462.36,-108.19 469.83,-115.71 472.89,-109.41"/>
</g>
<!-- 44 -->
<g id="node45" class="node">
<title>44</title>
<path fill="none" stroke="#56d8a9" stroke-width="2" d="M643.5,-252C643.5,-252 570.5,-252 570.5,-252 564.5,-252 558.5,-246 558.5,-240 558.5,-240 558.5,-228 558.5,-228 558.5,-222 564.5,-216 570.5,-216 570.5,-216 643.5,-216 643.5,-216 649.5,-216 655.5,-222 655.5,-228 655.5,-228 655.5,-240 655.5,-240 655.5,-246 649.5,-252 643.5,-252"/>
<text text-anchor="middle" x="607" y="-231.5" font-family="sans" font-size="10.00">umi_tools_count</text>
</g>
<!-- 44&#45;&gt;43 -->
<g id="edge59" class="edge">
<title>44&#45;&gt;43</title>
<path fill="none" stroke="grey" stroke-width="2" d="M598.1,-215.7C594,-207.73 589.05,-198.1 584.51,-189.26"/>
<polygon fill="grey" stroke="grey" stroke-width="2" points="587.48,-187.4 579.8,-180.1 581.26,-190.6 587.48,-187.4"/>
</g>
<!-- 45 -->
<g id="node46" class="node">
<title>45</title>
<path fill="none" stroke="#59d856" stroke-width="2" d="M640.5,-324C640.5,-324 569.5,-324 569.5,-324 563.5,-324 557.5,-318 557.5,-312 557.5,-312 557.5,-300 557.5,-300 557.5,-294 563.5,-288 569.5,-288 569.5,-288 640.5,-288 640.5,-288 646.5,-288 652.5,-294 652.5,-300 652.5,-300 652.5,-312 652.5,-312 652.5,-318 646.5,-324 640.5,-324"/>
<text text-anchor="middle" x="605" y="-303.5" font-family="sans" font-size="10.00">sambamba_sort</text>
</g>
<!-- 45&#45;&gt;44 -->
<g id="edge60" class="edge">
<title>45&#45;&gt;44</title>
<path fill="none" stroke="grey" stroke-width="2" d="M605.49,-287.7C605.71,-279.98 605.98,-270.71 606.23,-262.11"/>
<polygon fill="grey" stroke="grey" stroke-width="2" points="609.72,-262.2 606.51,-252.1 602.73,-262 609.72,-262.2"/>
</g>
<!-- 46&#45;&gt;45 -->
<g id="edge61" class="edge">
<title>46&#45;&gt;45</title>
<path fill="none" stroke="grey" stroke-width="2" d="M585.43,-359.7C588.36,-351.81 591.89,-342.3 595.14,-333.55"/>
<polygon fill="grey" stroke="grey" stroke-width="2" points="598.45,-334.7 598.65,-324.1 591.88,-332.26 598.45,-334.7"/>
</g>
<!-- 47 -->
<g id="node48" class="node">
<title>47</title>
<path fill="none" stroke="#d8ac56" stroke-width="2" d="M686.5,-180C686.5,-180 637.5,-180 637.5,-180 631.5,-180 625.5,-174 625.5,-168 625.5,-168 625.5,-156 625.5,-156 625.5,-150 631.5,-144 637.5,-144 637.5,-144 686.5,-144 686.5,-144 692.5,-144 698.5,-150 698.5,-156 698.5,-156 698.5,-168 698.5,-168 698.5,-174 692.5,-180 686.5,-180"/>
<text text-anchor="middle" x="662" y="-159.5" font-family="sans" font-size="10.00">append_sfx</text>
</g>
<!-- 47&#45;&gt;0 -->
<g id="edge6" class="edge">
<title>47&#45;&gt;0</title>
<path fill="none" stroke="grey" stroke-width="2" d="M636.66,-143.87C609.24,-125.52 564.06,-95.82 524,-72 504.1,-60.17 481.42,-47.72 463,-37.86"/>
<polygon fill="grey" stroke="grey" stroke-width="2" points="464.53,-34.71 454.06,-33.1 461.24,-40.89 464.53,-34.71"/>
</g>
<!-- 47&#45;&gt;51 -->
<g id="edge74" class="edge">
<title>47&#45;&gt;51</title>
<path fill="none" stroke="grey" stroke-width="2" d="M625.43,-147.18C622.25,-146.07 619.08,-145 616,-144 568.54,-128.6 513.54,-113.48 475.16,-103.36"/>
<polygon fill="grey" stroke="grey" stroke-width="2" points="475.84,-99.92 465.28,-100.77 474.07,-106.69 475.84,-99.92"/>
</g>
<!-- 48 -->
<g id="node49" class="node">
<title>48</title>
<path fill="none" stroke="#56d8a9" stroke-width="2" d="M758.5,-252C758.5,-252 685.5,-252 685.5,-252 679.5,-252 673.5,-246 673.5,-240 673.5,-240 673.5,-228 673.5,-228 673.5,-222 679.5,-216 685.5,-216 685.5,-216 758.5,-216 758.5,-216 764.5,-216 770.5,-222 770.5,-228 770.5,-228 770.5,-240 770.5,-240 770.5,-246 764.5,-252 758.5,-252"/>
<text text-anchor="middle" x="722" y="-231.5" font-family="sans" font-size="10.00">umi_tools_count</text>
</g>
<!-- 48&#45;&gt;47 -->
<g id="edge64" class="edge">
<title>48&#45;&gt;47</title>
<path fill="none" stroke="grey" stroke-width="2" d="M707.17,-215.7C699.98,-207.3 691.2,-197.07 683.31,-187.86"/>
<polygon fill="grey" stroke="grey" stroke-width="2" points="685.83,-185.42 676.66,-180.1 680.51,-189.97 685.83,-185.42"/>
</g>
<!-- 49 -->
<g id="node50" class="node">
<title>49</title>
<path fill="none" stroke="#59d856" stroke-width="2" d="M755.5,-324C755.5,-324 684.5,-324 684.5,-324 678.5,-324 672.5,-318 672.5,-312 672.5,-312 672.5,-300 672.5,-300 672.5,-294 678.5,-288 684.5,-288 684.5,-288 755.5,-288 755.5,-288 761.5,-288 767.5,-294 767.5,-300 767.5,-300 767.5,-312 767.5,-312 767.5,-318 761.5,-324 755.5,-324"/>
<text text-anchor="middle" x="720" y="-303.5" font-family="sans" font-size="10.00">sambamba_sort</text>
</g>
<!-- 49&#45;&gt;48 -->
<g id="edge65" class="edge">
<title>49&#45;&gt;48</title>
<path fill="none" stroke="grey" stroke-width="2" d="M720.49,-287.7C720.71,-279.98 720.98,-270.71 721.23,-262.11"/>
<polygon fill="grey" stroke="grey" stroke-width="2" points="724.72,-262.2 721.51,-252.1 717.73,-262 724.72,-262.2"/>
</g>
<!-- 50&#45;&gt;49 -->
<g id="edge66" class="edge">
<title>50&#45;&gt;49</title>
<path fill="none" stroke="grey" stroke-width="2" d="M686.88,-359.7C691.99,-351.56 698.2,-341.69 703.84,-332.7"/>
<polygon fill="grey" stroke="grey" stroke-width="2" points="706.89,-334.43 709.25,-324.1 700.96,-330.71 706.89,-334.43"/>
</g>
<!-- 51&#45;&gt;0 -->
<g id="edge7" class="edge">
<title>51&#45;&gt;0</title>
<path fill="none" stroke="grey" stroke-width="2" d="M427,-71.7C427,-63.98 427,-54.71 427,-46.11"/>
<polygon fill="grey" stroke="grey" stroke-width="2" points="430.5,-46.1 427,-36.1 423.5,-46.1 430.5,-46.1"/>
</g>
</g>
</svg>
