<?xml version="1.0" encoding="UTF-8" standalone="no"?>
<!DOCTYPE svg PUBLIC "-//W3C//DTD SVG 1.1//EN"
 "http://www.w3.org/Graphics/SVG/1.1/DTD/svg11.dtd">
<!-- Generated by graphviz version 2.49.0 (20210829.0051)
 -->
<!-- Title: snakemake_dag Pages: 1 -->
<svg width="239pt" height="836pt"
 viewBox="0.00 0.00 239.00 836.00" xmlns="http://www.w3.org/2000/svg" xmlns:xlink="http://www.w3.org/1999/xlink">
<g id="graph0" class="graph" transform="scale(1 1) rotate(0) translate(4 832)">
<title>snakemake_dag</title>
<polygon fill="white" stroke="transparent" points="-4,4 -4,-832 235,-832 235,4 -4,4"/>
<!-- 0 -->
<g id="node1" class="node">
<title>0</title>
<path fill="none" stroke="#68d856" stroke-width="2" d="M89,-36C89,-36 59,-36 59,-36 53,-36 47,-30 47,-24 47,-24 47,-12 47,-12 47,-6 53,0 59,0 59,0 89,0 89,0 95,0 101,-6 101,-12 101,-12 101,-24 101,-24 101,-30 95,-36 89,-36"/>
<text text-anchor="middle" x="74" y="-15.5" font-family="sans" font-size="10.00">all</text>
</g>
<!-- 1 -->
<g id="node2" class="node">
<title>1</title>
<path fill="none" stroke="#d8a456" stroke-width="2" d="M98.5,-180C98.5,-180 49.5,-180 49.5,-180 43.5,-180 37.5,-174 37.5,-168 37.5,-168 37.5,-156 37.5,-156 37.5,-150 43.5,-144 49.5,-144 49.5,-144 98.5,-144 98.5,-144 104.5,-144 110.5,-150 110.5,-156 110.5,-156 110.5,-168 110.5,-168 110.5,-174 104.5,-180 98.5,-180"/>
<text text-anchor="middle" x="74" y="-159.5" font-family="sans" font-size="10.00">append_sfx</text>
</g>
<!-- 1&#45;&gt;0 -->
<g id="edge2" class="edge">
<title>1&#45;&gt;0</title>
<path fill="none" stroke="grey" stroke-width="2" d="M68.18,-143.56C65.07,-133.33 61.57,-120.08 60,-108 57.94,-92.13 57.94,-87.87 60,-72 61.1,-63.51 63.16,-54.43 65.37,-46.24"/>
<polygon fill="grey" stroke="grey" stroke-width="2" points="68.78,-47.02 68.18,-36.44 62.05,-45.09 68.78,-47.02"/>
</g>
<!-- 12 -->
<g id="node13" class="node">
<title>12</title>
<path fill="none" stroke="#d8cb56" stroke-width="2" d="M133,-108C133,-108 81,-108 81,-108 75,-108 69,-102 69,-96 69,-96 69,-84 69,-84 69,-78 75,-72 81,-72 81,-72 133,-72 133,-72 139,-72 145,-78 145,-84 145,-84 145,-96 145,-96 145,-102 139,-108 133,-108"/>
<text text-anchor="middle" x="107" y="-87.5" font-family="sans" font-size="10.00">aggr_counts</text>
</g>
<!-- 1&#45;&gt;12 -->
<g id="edge17" class="edge">
<title>1&#45;&gt;12</title>
<path fill="none" stroke="grey" stroke-width="2" d="M82.16,-143.7C85.91,-135.73 90.45,-126.1 94.62,-117.26"/>
<polygon fill="grey" stroke="grey" stroke-width="2" points="97.84,-118.64 98.94,-108.1 91.51,-115.66 97.84,-118.64"/>
</g>
<!-- 2 -->
<g id="node3" class="node">
<title>2</title>
<path fill="none" stroke="#d85656" stroke-width="2" d="M110.5,-252C110.5,-252 37.5,-252 37.5,-252 31.5,-252 25.5,-246 25.5,-240 25.5,-240 25.5,-228 25.5,-228 25.5,-222 31.5,-216 37.5,-216 37.5,-216 110.5,-216 110.5,-216 116.5,-216 122.5,-222 122.5,-228 122.5,-228 122.5,-240 122.5,-240 122.5,-246 116.5,-252 110.5,-252"/>
<text text-anchor="middle" x="74" y="-231.5" font-family="sans" font-size="10.00">umi_tools_count</text>
</g>
<!-- 2&#45;&gt;1 -->
<g id="edge3" class="edge">
<title>2&#45;&gt;1</title>
<path fill="none" stroke="grey" stroke-width="2" d="M74,-215.7C74,-207.98 74,-198.71 74,-190.11"/>
<polygon fill="grey" stroke="grey" stroke-width="2" points="77.5,-190.1 74,-180.1 70.5,-190.1 77.5,-190.1"/>
</g>
<!-- 3 -->
<g id="node4" class="node">
<title>3</title>
<path fill="none" stroke="#d87d56" stroke-width="2" d="M109.5,-324C109.5,-324 38.5,-324 38.5,-324 32.5,-324 26.5,-318 26.5,-312 26.5,-312 26.5,-300 26.5,-300 26.5,-294 32.5,-288 38.5,-288 38.5,-288 109.5,-288 109.5,-288 115.5,-288 121.5,-294 121.5,-300 121.5,-300 121.5,-312 121.5,-312 121.5,-318 115.5,-324 109.5,-324"/>
<text text-anchor="middle" x="74" y="-303.5" font-family="sans" font-size="10.00">sambamba_sort</text>
</g>
<!-- 3&#45;&gt;2 -->
<g id="edge4" class="edge">
<title>3&#45;&gt;2</title>
<path fill="none" stroke="grey" stroke-width="2" d="M74,-287.7C74,-279.98 74,-270.71 74,-262.11"/>
<polygon fill="grey" stroke="grey" stroke-width="2" points="77.5,-262.1 74,-252.1 70.5,-262.1 77.5,-262.1"/>
</g>
<!-- 4 -->
<g id="node5" class="node">
<title>4</title>
<path fill="none" stroke="#56d86b" stroke-width="2" d="M101.5,-396C101.5,-396 46.5,-396 46.5,-396 40.5,-396 34.5,-390 34.5,-384 34.5,-384 34.5,-372 34.5,-372 34.5,-366 40.5,-360 46.5,-360 46.5,-360 101.5,-360 101.5,-360 107.5,-360 113.5,-366 113.5,-372 113.5,-372 113.5,-384 113.5,-384 113.5,-390 107.5,-396 101.5,-396"/>
<text text-anchor="middle" x="74" y="-375.5" font-family="sans" font-size="10.00">featurecount</text>
</g>
<!-- 4&#45;&gt;3 -->
<g id="edge5" class="edge">
<title>4&#45;&gt;3</title>
<path fill="none" stroke="grey" stroke-width="2" d="M74,-359.7C74,-351.98 74,-342.71 74,-334.11"/>
<polygon fill="grey" stroke="grey" stroke-width="2" points="77.5,-334.1 74,-324.1 70.5,-334.1 77.5,-334.1"/>
</g>
<!-- 5 -->
<g id="node6" class="node">
<title>5</title>
<path fill="none" stroke="#56d0d8" stroke-width="2" d="M123,-540C123,-540 93,-540 93,-540 87,-540 81,-534 81,-528 81,-528 81,-516 81,-516 81,-510 87,-504 93,-504 93,-504 123,-504 123,-504 129,-504 135,-510 135,-516 135,-516 135,-528 135,-528 135,-534 129,-540 123,-540"/>
<text text-anchor="middle" x="108" y="-519.5" font-family="sans" font-size="10.00">STAR</text>
</g>
<!-- 5&#45;&gt;4 -->
<g id="edge7" class="edge">
<title>5&#45;&gt;4</title>
<path fill="none" stroke="grey" stroke-width="2" d="M104.69,-503.86C101.13,-485.88 95.16,-456.84 89,-432 86.87,-423.42 84.33,-414.13 81.94,-405.76"/>
<polygon fill="grey" stroke="grey" stroke-width="2" points="85.29,-404.74 79.15,-396.11 78.57,-406.69 85.29,-404.74"/>
</g>
<!-- 11 -->
<g id="node12" class="node">
<title>11</title>
<path fill="none" stroke="#56d892" stroke-width="2" d="M68,-468C68,-468 12,-468 12,-468 6,-468 0,-462 0,-456 0,-456 0,-444 0,-444 0,-438 6,-432 12,-432 12,-432 68,-432 68,-432 74,-432 80,-438 80,-444 80,-444 80,-456 80,-456 80,-462 74,-468 68,-468"/>
<text text-anchor="middle" x="40" y="-447.5" font-family="sans" font-size="10.00">STAR_unload</text>
</g>
<!-- 5&#45;&gt;11 -->
<g id="edge15" class="edge">
<title>5&#45;&gt;11</title>
<path fill="none" stroke="grey" stroke-width="2" d="M91.19,-503.7C82.87,-495.14 72.69,-484.66 63.61,-475.3"/>
<polygon fill="grey" stroke="grey" stroke-width="2" points="66.09,-472.84 56.62,-468.1 61.07,-477.72 66.09,-472.84"/>
</g>
<!-- 6 -->
<g id="node7" class="node">
<title>6</title>
<path fill="none" stroke="#567bd8" stroke-width="2" d="M215,-684C215,-684 135,-684 135,-684 129,-684 123,-678 123,-672 123,-672 123,-660 123,-660 123,-654 129,-648 135,-648 135,-648 215,-648 215,-648 221,-648 227,-654 227,-660 227,-660 227,-672 227,-672 227,-678 221,-684 215,-684"/>
<text text-anchor="middle" x="175" y="-663.5" font-family="sans" font-size="10.00">umi_tools_extract</text>
</g>
<!-- 6&#45;&gt;5 -->
<g id="edge10" class="edge">
<title>6&#45;&gt;5</title>
<path fill="none" stroke="grey" stroke-width="2" d="M177.03,-647.93C178.47,-629.24 178.46,-598.89 167,-576 161.36,-564.75 152.23,-554.77 142.82,-546.6"/>
<polygon fill="grey" stroke="grey" stroke-width="2" points="144.88,-543.76 134.91,-540.17 140.46,-549.19 144.88,-543.76"/>
</g>
<!-- 10 -->
<g id="node11" class="node">
<title>10</title>
<path fill="none" stroke="#8fd856" stroke-width="2" d="M146,-612C146,-612 102,-612 102,-612 96,-612 90,-606 90,-600 90,-600 90,-588 90,-588 90,-582 96,-576 102,-576 102,-576 146,-576 146,-576 152,-576 158,-582 158,-588 158,-588 158,-600 158,-600 158,-606 152,-612 146,-612"/>
<text text-anchor="middle" x="124" y="-591.5" font-family="sans" font-size="10.00">STAR_load</text>
</g>
<!-- 6&#45;&gt;10 -->
<g id="edge14" class="edge">
<title>6&#45;&gt;10</title>
<path fill="none" stroke="grey" stroke-width="2" d="M162.39,-647.7C156.4,-639.47 149.12,-629.48 142.52,-620.42"/>
<polygon fill="grey" stroke="grey" stroke-width="2" points="145.18,-618.13 136.46,-612.1 139.52,-622.25 145.18,-618.13"/>
</g>
<!-- 7 -->
<g id="node8" class="node">
<title>7</title>
<path fill="none" stroke="#56a9d8" stroke-width="2" d="M207.5,-756C207.5,-756 142.5,-756 142.5,-756 136.5,-756 130.5,-750 130.5,-744 130.5,-744 130.5,-732 130.5,-732 130.5,-726 136.5,-720 142.5,-720 142.5,-720 207.5,-720 207.5,-720 213.5,-720 219.5,-726 219.5,-732 219.5,-732 219.5,-744 219.5,-744 219.5,-750 213.5,-756 207.5,-756"/>
<text text-anchor="middle" x="175" y="-735.5" font-family="sans" font-size="10.00">wash_whitelist</text>
</g>
<!-- 7&#45;&gt;6 -->
<g id="edge11" class="edge">
<title>7&#45;&gt;6</title>
<path fill="none" stroke="grey" stroke-width="2" d="M175,-719.7C175,-711.98 175,-702.71 175,-694.11"/>
<polygon fill="grey" stroke="grey" stroke-width="2" points="178.5,-694.1 175,-684.1 171.5,-694.1 178.5,-694.1"/>
</g>
<!-- 8 -->
<g id="node9" class="node">
<title>8</title>
<path fill="none" stroke="#56d8b9" stroke-width="2" d="M219,-828C219,-828 131,-828 131,-828 125,-828 119,-822 119,-816 119,-816 119,-804 119,-804 119,-798 125,-792 131,-792 131,-792 219,-792 219,-792 225,-792 231,-798 231,-804 231,-804 231,-816 231,-816 231,-822 225,-828 219,-828"/>
<text text-anchor="middle" x="175" y="-807.5" font-family="sans" font-size="10.00">umi_tools_whitelist</text>
</g>
<!-- 8&#45;&gt;7 -->
<g id="edge12" class="edge">
<title>8&#45;&gt;7</title>
<path fill="none" stroke="grey" stroke-width="2" d="M175,-791.7C175,-783.98 175,-774.71 175,-766.11"/>
<polygon fill="grey" stroke="grey" stroke-width="2" points="178.5,-766.1 175,-756.1 171.5,-766.1 178.5,-766.1"/>
</g>
<!-- 9 -->
<g id="node10" class="node">
<title>9</title>
<path fill="none" stroke="#b6d856" stroke-width="2" d="M82.5,-684C82.5,-684 41.5,-684 41.5,-684 35.5,-684 29.5,-678 29.5,-672 29.5,-672 29.5,-660 29.5,-660 29.5,-654 35.5,-648 41.5,-648 41.5,-648 82.5,-648 82.5,-648 88.5,-648 94.5,-654 94.5,-660 94.5,-660 94.5,-672 94.5,-672 94.5,-678 88.5,-684 82.5,-684"/>
<text text-anchor="middle" x="62" y="-663.5" font-family="sans" font-size="10.00">STAR_gen</text>
</g>
<!-- 9&#45;&gt;5 -->
<g id="edge8" class="edge">
<title>9&#45;&gt;5</title>
<path fill="none" stroke="grey" stroke-width="2" d="M64.29,-647.91C67.04,-629.72 72.39,-600.27 81,-576 84.21,-566.95 88.65,-557.48 93,-549.09"/>
<polygon fill="grey" stroke="grey" stroke-width="2" points="96.15,-550.62 97.81,-540.16 89.99,-547.3 96.15,-550.62"/>
</g>
<!-- 9&#45;&gt;10 -->
<g id="edge13" class="edge">
<title>9&#45;&gt;10</title>
<path fill="none" stroke="grey" stroke-width="2" d="M77.33,-647.7C84.76,-639.3 93.82,-629.07 101.98,-619.86"/>
<polygon fill="grey" stroke="grey" stroke-width="2" points="104.84,-621.91 108.85,-612.1 99.6,-617.27 104.84,-621.91"/>
</g>
<!-- 9&#45;&gt;11 -->
<g id="edge16" class="edge">
<title>9&#45;&gt;11</title>
<path fill="none" stroke="grey" stroke-width="2" d="M60.24,-647.85C56.43,-610.83 47.42,-523.18 42.82,-478.39"/>
<polygon fill="grey" stroke="grey" stroke-width="2" points="46.28,-477.82 41.77,-468.23 39.31,-478.54 46.28,-477.82"/>
</g>
<!-- 10&#45;&gt;5 -->
<g id="edge9" class="edge">
<title>10&#45;&gt;5</title>
<path fill="none" stroke="grey" stroke-width="2" d="M120.04,-575.7C118.28,-567.98 116.16,-558.71 114.2,-550.11"/>
<polygon fill="grey" stroke="grey" stroke-width="2" points="117.55,-549.07 111.91,-540.1 110.73,-550.63 117.55,-549.07"/>
</g>
<!-- 11&#45;&gt;4 -->
<g id="edge6" class="edge">
<title>11&#45;&gt;4</title>
<path fill="none" stroke="grey" stroke-width="2" d="M48.4,-431.7C52.27,-423.73 56.95,-414.1 61.24,-405.26"/>
<polygon fill="grey" stroke="grey" stroke-width="2" points="64.47,-406.63 65.69,-396.1 58.17,-403.57 64.47,-406.63"/>
</g>
<!-- 12&#45;&gt;0 -->
<g id="edge1" class="edge">
<title>12&#45;&gt;0</title>
<path fill="none" stroke="grey" stroke-width="2" d="M98.84,-71.7C95.09,-63.73 90.55,-54.1 86.38,-45.26"/>
<polygon fill="grey" stroke="grey" stroke-width="2" points="89.49,-43.66 82.06,-36.1 83.16,-46.64 89.49,-43.66"/>
</g>
</g>
</svg>
