<?xml version="1.0" encoding="UTF-8" standalone="no"?>
<!DOCTYPE svg PUBLIC "-//W3C//DTD SVG 1.1//EN"
 "http://www.w3.org/Graphics/SVG/1.1/DTD/svg11.dtd">
<!-- Generated by graphviz version 2.49.0 (20210829.0051)
 -->
<!-- Title: snakemake_dag Pages: 1 -->
<svg width="239pt" height="764pt"
 viewBox="0.00 0.00 239.00 764.00" xmlns="http://www.w3.org/2000/svg" xmlns:xlink="http://www.w3.org/1999/xlink">
<g id="graph0" class="graph" transform="scale(1 1) rotate(0) translate(4 760)">
<title>snakemake_dag</title>
<polygon fill="white" stroke="transparent" points="-4,4 -4,-760 235,-760 235,4 -4,4"/>
<!-- 0 -->
<g id="node1" class="node">
<title>0</title>
<path fill="none" stroke="#56a9d8" stroke-width="2" d="M135,-36C135,-36 105,-36 105,-36 99,-36 93,-30 93,-24 93,-24 93,-12 93,-12 93,-6 99,0 105,0 105,0 135,0 135,0 141,0 147,-6 147,-12 147,-12 147,-24 147,-24 147,-30 141,-36 135,-36"/>
<text text-anchor="middle" x="120" y="-15.5" font-family="sans" font-size="10.00">all</text>
</g>
<!-- 1 -->
<g id="node2" class="node">
<title>1</title>
<path fill="none" stroke="#d8cb56" stroke-width="2" d="M98.5,-108C98.5,-108 49.5,-108 49.5,-108 43.5,-108 37.5,-102 37.5,-96 37.5,-96 37.5,-84 37.5,-84 37.5,-78 43.5,-72 49.5,-72 49.5,-72 98.5,-72 98.5,-72 104.5,-72 110.5,-78 110.5,-84 110.5,-84 110.5,-96 110.5,-96 110.5,-102 104.5,-108 98.5,-108"/>
<text text-anchor="middle" x="74" y="-87.5" font-family="sans" font-size="10.00">append_sfx</text>
</g>
<!-- 1&#45;&gt;0 -->
<g id="edge1" class="edge">
<title>1&#45;&gt;0</title>
<path fill="none" stroke="grey" stroke-width="2" d="M85.37,-71.7C90.72,-63.56 97.2,-53.69 103.11,-44.7"/>
<polygon fill="grey" stroke="grey" stroke-width="2" points="106.19,-46.38 108.76,-36.1 100.34,-42.54 106.19,-46.38"/>
</g>
<!-- 2 -->
<g id="node3" class="node">
<title>2</title>
<path fill="none" stroke="#567bd8" stroke-width="2" d="M110.5,-180C110.5,-180 37.5,-180 37.5,-180 31.5,-180 25.5,-174 25.5,-168 25.5,-168 25.5,-156 25.5,-156 25.5,-150 31.5,-144 37.5,-144 37.5,-144 110.5,-144 110.5,-144 116.5,-144 122.5,-150 122.5,-156 122.5,-156 122.5,-168 122.5,-168 122.5,-174 116.5,-180 110.5,-180"/>
<text text-anchor="middle" x="74" y="-159.5" font-family="sans" font-size="10.00">umi_tools_count</text>
</g>
<!-- 2&#45;&gt;1 -->
<g id="edge3" class="edge">
<title>2&#45;&gt;1</title>
<path fill="none" stroke="grey" stroke-width="2" d="M74,-143.7C74,-135.98 74,-126.71 74,-118.11"/>
<polygon fill="grey" stroke="grey" stroke-width="2" points="77.5,-118.1 74,-108.1 70.5,-118.1 77.5,-118.1"/>
</g>
<!-- 3 -->
<g id="node4" class="node">
<title>3</title>
<path fill="none" stroke="#d87d56" stroke-width="2" d="M109.5,-252C109.5,-252 38.5,-252 38.5,-252 32.5,-252 26.5,-246 26.5,-240 26.5,-240 26.5,-228 26.5,-228 26.5,-222 32.5,-216 38.5,-216 38.5,-216 109.5,-216 109.5,-216 115.5,-216 121.5,-222 121.5,-228 121.5,-228 121.5,-240 121.5,-240 121.5,-246 115.5,-252 109.5,-252"/>
<text text-anchor="middle" x="74" y="-231.5" font-family="sans" font-size="10.00">sambamba_sort</text>
</g>
<!-- 3&#45;&gt;2 -->
<g id="edge4" class="edge">
<title>3&#45;&gt;2</title>
<path fill="none" stroke="grey" stroke-width="2" d="M74,-215.7C74,-207.98 74,-198.71 74,-190.11"/>
<polygon fill="grey" stroke="grey" stroke-width="2" points="77.5,-190.1 74,-180.1 70.5,-190.1 77.5,-190.1"/>
</g>
<!-- 4 -->
<g id="node5" class="node">
<title>4</title>
<path fill="none" stroke="#b6d856" stroke-width="2" d="M101.5,-324C101.5,-324 46.5,-324 46.5,-324 40.5,-324 34.5,-318 34.5,-312 34.5,-312 34.5,-300 34.5,-300 34.5,-294 40.5,-288 46.5,-288 46.5,-288 101.5,-288 101.5,-288 107.5,-288 113.5,-294 113.5,-300 113.5,-300 113.5,-312 113.5,-312 113.5,-318 107.5,-324 101.5,-324"/>
<text text-anchor="middle" x="74" y="-303.5" font-family="sans" font-size="10.00">featurecount</text>
</g>
<!-- 4&#45;&gt;3 -->
<g id="edge5" class="edge">
<title>4&#45;&gt;3</title>
<path fill="none" stroke="grey" stroke-width="2" d="M74,-287.7C74,-279.98 74,-270.71 74,-262.11"/>
<polygon fill="grey" stroke="grey" stroke-width="2" points="77.5,-262.1 74,-252.1 70.5,-262.1 77.5,-262.1"/>
</g>
<!-- 5 -->
<g id="node6" class="node">
<title>5</title>
<path fill="none" stroke="#56d8b9" stroke-width="2" d="M123,-468C123,-468 93,-468 93,-468 87,-468 81,-462 81,-456 81,-456 81,-444 81,-444 81,-438 87,-432 93,-432 93,-432 123,-432 123,-432 129,-432 135,-438 135,-444 135,-444 135,-456 135,-456 135,-462 129,-468 123,-468"/>
<text text-anchor="middle" x="108" y="-447.5" font-family="sans" font-size="10.00">STAR</text>
</g>
<!-- 5&#45;&gt;4 -->
<g id="edge7" class="edge">
<title>5&#45;&gt;4</title>
<path fill="none" stroke="grey" stroke-width="2" d="M104.69,-431.86C101.13,-413.88 95.16,-384.84 89,-360 86.87,-351.42 84.33,-342.13 81.94,-333.76"/>
<polygon fill="grey" stroke="grey" stroke-width="2" points="85.29,-332.74 79.15,-324.11 78.57,-334.69 85.29,-332.74"/>
</g>
<!-- 11 -->
<g id="node12" class="node">
<title>11</title>
<path fill="none" stroke="#d85656" stroke-width="2" d="M68,-396C68,-396 12,-396 12,-396 6,-396 0,-390 0,-384 0,-384 0,-372 0,-372 0,-366 6,-360 12,-360 12,-360 68,-360 68,-360 74,-360 80,-366 80,-372 80,-372 80,-384 80,-384 80,-390 74,-396 68,-396"/>
<text text-anchor="middle" x="40" y="-375.5" font-family="sans" font-size="10.00">STAR_unload</text>
</g>
<!-- 5&#45;&gt;11 -->
<g id="edge16" class="edge">
<title>5&#45;&gt;11</title>
<path fill="none" stroke="grey" stroke-width="2" d="M91.19,-431.7C82.87,-423.14 72.69,-412.66 63.61,-403.3"/>
<polygon fill="grey" stroke="grey" stroke-width="2" points="66.09,-400.84 56.62,-396.1 61.07,-405.72 66.09,-400.84"/>
</g>
<!-- 6 -->
<g id="node7" class="node">
<title>6</title>
<path fill="none" stroke="#8fd856" stroke-width="2" d="M215,-612C215,-612 135,-612 135,-612 129,-612 123,-606 123,-600 123,-600 123,-588 123,-588 123,-582 129,-576 135,-576 135,-576 215,-576 215,-576 221,-576 227,-582 227,-588 227,-588 227,-600 227,-600 227,-606 221,-612 215,-612"/>
<text text-anchor="middle" x="175" y="-591.5" font-family="sans" font-size="10.00">umi_tools_extract</text>
</g>
<!-- 6&#45;&gt;5 -->
<g id="edge10" class="edge">
<title>6&#45;&gt;5</title>
<path fill="none" stroke="grey" stroke-width="2" d="M177.03,-575.93C178.47,-557.24 178.46,-526.89 167,-504 161.36,-492.75 152.23,-482.77 142.82,-474.6"/>
<polygon fill="grey" stroke="grey" stroke-width="2" points="144.88,-471.76 134.91,-468.17 140.46,-477.19 144.88,-471.76"/>
</g>
<!-- 10 -->
<g id="node11" class="node">
<title>10</title>
<path fill="none" stroke="#68d856" stroke-width="2" d="M146,-540C146,-540 102,-540 102,-540 96,-540 90,-534 90,-528 90,-528 90,-516 90,-516 90,-510 96,-504 102,-504 102,-504 146,-504 146,-504 152,-504 158,-510 158,-516 158,-516 158,-528 158,-528 158,-534 152,-540 146,-540"/>
<text text-anchor="middle" x="124" y="-519.5" font-family="sans" font-size="10.00">STAR_load</text>
</g>
<!-- 6&#45;&gt;10 -->
<g id="edge14" class="edge">
<title>6&#45;&gt;10</title>
<path fill="none" stroke="grey" stroke-width="2" d="M162.39,-575.7C156.4,-567.47 149.12,-557.48 142.52,-548.42"/>
<polygon fill="grey" stroke="grey" stroke-width="2" points="145.18,-546.13 136.46,-540.1 139.52,-550.25 145.18,-546.13"/>
</g>
<!-- 7 -->
<g id="node8" class="node">
<title>7</title>
<path fill="none" stroke="#56d892" stroke-width="2" d="M207.5,-684C207.5,-684 142.5,-684 142.5,-684 136.5,-684 130.5,-678 130.5,-672 130.5,-672 130.5,-660 130.5,-660 130.5,-654 136.5,-648 142.5,-648 142.5,-648 207.5,-648 207.5,-648 213.5,-648 219.5,-654 219.5,-660 219.5,-660 219.5,-672 219.5,-672 219.5,-678 213.5,-684 207.5,-684"/>
<text text-anchor="middle" x="175" y="-663.5" font-family="sans" font-size="10.00">wash_whitelist</text>
</g>
<!-- 7&#45;&gt;6 -->
<g id="edge11" class="edge">
<title>7&#45;&gt;6</title>
<path fill="none" stroke="grey" stroke-width="2" d="M175,-647.7C175,-639.98 175,-630.71 175,-622.11"/>
<polygon fill="grey" stroke="grey" stroke-width="2" points="178.5,-622.1 175,-612.1 171.5,-622.1 178.5,-622.1"/>
</g>
<!-- 8 -->
<g id="node9" class="node">
<title>8</title>
<path fill="none" stroke="#56d0d8" stroke-width="2" d="M219,-756C219,-756 131,-756 131,-756 125,-756 119,-750 119,-744 119,-744 119,-732 119,-732 119,-726 125,-720 131,-720 131,-720 219,-720 219,-720 225,-720 231,-726 231,-732 231,-732 231,-744 231,-744 231,-750 225,-756 219,-756"/>
<text text-anchor="middle" x="175" y="-735.5" font-family="sans" font-size="10.00">umi_tools_whitelist</text>
</g>
<!-- 8&#45;&gt;7 -->
<g id="edge12" class="edge">
<title>8&#45;&gt;7</title>
<path fill="none" stroke="grey" stroke-width="2" d="M175,-719.7C175,-711.98 175,-702.71 175,-694.11"/>
<polygon fill="grey" stroke="grey" stroke-width="2" points="178.5,-694.1 175,-684.1 171.5,-694.1 178.5,-694.1"/>
</g>
<!-- 9 -->
<g id="node10" class="node">
<title>9</title>
<path fill="none" stroke="#d8a456" stroke-width="2" d="M82.5,-612C82.5,-612 41.5,-612 41.5,-612 35.5,-612 29.5,-606 29.5,-600 29.5,-600 29.5,-588 29.5,-588 29.5,-582 35.5,-576 41.5,-576 41.5,-576 82.5,-576 82.5,-576 88.5,-576 94.5,-582 94.5,-588 94.5,-588 94.5,-600 94.5,-600 94.5,-606 88.5,-612 82.5,-612"/>
<text text-anchor="middle" x="62" y="-591.5" font-family="sans" font-size="10.00">STAR_gen</text>
</g>
<!-- 9&#45;&gt;5 -->
<g id="edge9" class="edge">
<title>9&#45;&gt;5</title>
<path fill="none" stroke="grey" stroke-width="2" d="M64.29,-575.91C67.04,-557.72 72.39,-528.27 81,-504 84.21,-494.95 88.65,-485.48 93,-477.09"/>
<polygon fill="grey" stroke="grey" stroke-width="2" points="96.15,-478.62 97.81,-468.16 89.99,-475.3 96.15,-478.62"/>
</g>
<!-- 9&#45;&gt;10 -->
<g id="edge13" class="edge">
<title>9&#45;&gt;10</title>
<path fill="none" stroke="grey" stroke-width="2" d="M77.33,-575.7C84.76,-567.3 93.82,-557.07 101.98,-547.86"/>
<polygon fill="grey" stroke="grey" stroke-width="2" points="104.84,-549.91 108.85,-540.1 99.6,-545.27 104.84,-549.91"/>
</g>
<!-- 9&#45;&gt;11 -->
<g id="edge15" class="edge">
<title>9&#45;&gt;11</title>
<path fill="none" stroke="grey" stroke-width="2" d="M60.24,-575.85C56.43,-538.83 47.42,-451.18 42.82,-406.39"/>
<polygon fill="grey" stroke="grey" stroke-width="2" points="46.28,-405.82 41.77,-396.23 39.31,-406.54 46.28,-405.82"/>
</g>
<!-- 10&#45;&gt;5 -->
<g id="edge8" class="edge">
<title>10&#45;&gt;5</title>
<path fill="none" stroke="grey" stroke-width="2" d="M120.04,-503.7C118.28,-495.98 116.16,-486.71 114.2,-478.11"/>
<polygon fill="grey" stroke="grey" stroke-width="2" points="117.55,-477.07 111.91,-468.1 110.73,-478.63 117.55,-477.07"/>
</g>
<!-- 11&#45;&gt;4 -->
<g id="edge6" class="edge">
<title>11&#45;&gt;4</title>
<path fill="none" stroke="grey" stroke-width="2" d="M48.4,-359.7C52.27,-351.73 56.95,-342.1 61.24,-333.26"/>
<polygon fill="grey" stroke="grey" stroke-width="2" points="64.47,-334.63 65.69,-324.1 58.17,-331.57 64.47,-334.63"/>
</g>
<!-- 12 -->
<g id="node13" class="node">
<title>12</title>
<path fill="none" stroke="#56d86b" stroke-width="2" d="M193,-108C193,-108 141,-108 141,-108 135,-108 129,-102 129,-96 129,-96 129,-84 129,-84 129,-78 135,-72 141,-72 141,-72 193,-72 193,-72 199,-72 205,-78 205,-84 205,-84 205,-96 205,-96 205,-102 199,-108 193,-108"/>
<text text-anchor="middle" x="167" y="-87.5" font-family="sans" font-size="10.00">aggr_counts</text>
</g>
<!-- 12&#45;&gt;0 -->
<g id="edge2" class="edge">
<title>12&#45;&gt;0</title>
<path fill="none" stroke="grey" stroke-width="2" d="M155.38,-71.7C149.86,-63.47 143.15,-53.48 137.07,-44.42"/>
<polygon fill="grey" stroke="grey" stroke-width="2" points="139.96,-42.46 131.48,-36.1 134.15,-46.36 139.96,-42.46"/>
</g>
</g>
</svg>
